<?xml version="1.0" encoding="utf-8"?>
<svg viewBox="0 0 500 500" xmlns="http://www.w3.org/2000/svg">
  <path style="stroke: rgb(0, 0, 0); fill: none; stroke-width: 2px; stroke-linecap: round;" d="M 265.102 121.057 C 265.19 120.937 277.278 130.515 300.699 119.511" transform="matrix(-1, 0, 0, -1, 565.800995, 244.317711)"/>
  <path style="fill: rgb(216, 216, 216); stroke: rgb(0, 0, 0); stroke-width: 2px;" d="M 264.455 118.827 L 270.127 122.294 L 267.396 127.966 L 270.782 121.508 L 264.455 118.827 Z" transform="matrix(-1, 0, 0, -1, 535.237, 246.793007)"/>
  <path style="stroke: rgb(0, 0, 0); stroke-linecap: round; fill: none; stroke-width: 2px;" d="M 265.102 132.191 C 265.19 132.071 277.278 141.649 300.699 130.645" transform="matrix(-1, 0, 0, -1, 565.800995, 266.585724)"/>
  <path style="fill: rgb(216, 216, 216); stroke: rgb(0, 0, 0); stroke-width: 2px; stroke-linecap: round;" d="M 264.403 129.961 L 270.075 133.428 L 267.344 139.1 L 270.782 132.911 L 264.403 129.961 Z" transform="matrix(-1, 0, 0, -1, 535.185028, 269.061005)"/>
</svg>