<?xml version="1.0" encoding="utf-8"?>
<svg viewBox="0 0 500 500" xmlns="http://www.w3.org/2000/svg" xmlns:bx="https://boxy-svg.com">
  <defs>
    <radialGradient gradientUnits="userSpaceOnUse" cx="816.58" cy="230.81" r="329.722" id="gradient-1" gradientTransform="matrix(-2.396077, -0.031936, 0.032834, -2.463398, 2202.745066, 793.408976)">
      <stop offset="0" style="stop-color: rgba(1, 7, 178, 1)"/>
      <stop offset="1" style="stop-color: rgba(0, 3, 77, 0);"/>
    </radialGradient>
  </defs>
  <ellipse style="fill: url(#gradient-1);" cx="250" cy="200" rx="450" ry="450"/>
  <path d="M 273.295 -111.441 L 275.828 -102.105 L 284.707 -105.945 L 278.987 -98.144 L 287.525 -93.597 L 277.86 -93.205 L 279.628 -83.694 L 273.295 -91.007 L 266.962 -83.694 L 268.73 -93.205 L 259.065 -93.597 L 267.603 -98.144 L 261.883 -105.945 L 270.762 -102.105 Z" style="stroke: rgb(0, 0, 0); stroke-width: 3px; fill: rgb(233, 241, 4);" bx:shape="star 273.295 -96.845 14.596 14.596 0.4 7 1@d3b9745f"/>
  <path d="M 534.191 358.355 L 536.724 367.691 L 545.603 363.851 L 539.883 371.652 L 548.421 376.199 L 538.756 376.591 L 540.524 386.102 L 534.191 378.789 L 527.858 386.102 L 529.626 376.591 L 519.961 376.199 L 528.499 371.652 L 522.779 363.851 L 531.658 367.691 Z" style="stroke: rgb(0, 0, 0); stroke-width: 3px; fill: rgb(233, 241, 4);" bx:shape="star 534.191 372.951 14.596 14.596 0.4 7 1@f44f1669"/>
  <path d="M 114.23 489.715 L 116.763 499.051 L 125.642 495.211 L 119.922 503.012 L 128.46 507.559 L 118.795 507.951 L 120.563 517.462 L 114.23 510.149 L 107.897 517.462 L 109.665 507.951 L 100 507.559 L 108.538 503.012 L 102.818 495.211 L 111.697 499.051 Z" style="stroke: rgb(0, 0, 0); stroke-width: 3px; fill: rgb(233, 241, 4);" bx:shape="star 114.23 504.311 14.596 14.596 0.4 7 1@ceb64165"/>
  <path d="M -52.707 87.796 L -50.174 97.132 L -41.295 93.292 L -47.015 101.093 L -38.477 105.64 L -48.142 106.032 L -46.374 115.543 L -52.707 108.23 L -59.04 115.543 L -57.272 106.032 L -66.937 105.64 L -58.399 101.093 L -64.119 93.292 L -55.24 97.132 Z" style="stroke: rgb(0, 0, 0); stroke-width: 3px; fill: rgb(233, 241, 4);" bx:shape="star -52.707 102.392 14.596 14.596 0.4 7 1@187c716f"/>
  <path d="M 362.233 155.301 L 364.766 164.637 L 373.645 160.797 L 367.925 168.598 L 376.463 173.145 L 366.798 173.537 L 368.566 183.048 L 362.233 175.735 L 355.9 183.048 L 357.668 173.537 L 348.003 173.145 L 356.541 168.598 L 350.821 160.797 L 359.7 164.637 Z" style="stroke: rgb(0, 0, 0); stroke-width: 3px; fill: rgb(233, 241, 4);" bx:shape="star 362.233 169.897 14.596 14.596 0.4 7 1@485bc859"/>
  <g transform="matrix(-0.743145, 0.669131, -0.669131, -0.743145, 1034.196045, -191.724915)" bx:shape="spiral 561.558 110.229 0 92.135 0 1080 1@04811f00">
    <path d="M 561.495 110.153 C 562.812 109.596 563.858 109.484 567.488 108.266 M 561.558 110.182 C 564.028 109.613 566.221 108.735 567.914 108.567 M 568.013 108.415 C 568.436 110.689 568.475 111.795 570.285 115.306 M 567.545 108.708 C 568.975 110.886 569.811 112.822 570.184 115.103 M 570.188 115.371 C 569.121 117.764 568.992 120.005 567.944 121.553 M 570.219 115.502 C 569.963 117.119 568.908 118.95 568.123 121.209 M 568.316 121.738 C 566.131 122.127 564.748 122.82 562.069 125.417 M 567.973 121.563 C 566.014 122.529 564.549 123.874 561.641 125.735 M 561.079 126.254 C 556.236 124.378 552.582 124.701 548.27 124.283 M 561.392 125.806 C 557.996 124.829 555.415 124.654 548.299 123.349 M 547.202 124.087 C 545.784 121.955 544.297 119.759 540.255 116.205 M 547.593 123.46 C 544.432 120.152 541.975 117.42 540.687 115.433 M 541.71 116.057 C 539.078 110.065 539.538 105.977 538.992 97.762 M 540.766 116.152 C 539.285 110.266 539.807 106.183 539.625 97.887 M 540.147 98.005 C 541.474 94.254 545.812 88.768 546.871 86.702 M 538.931 97.058 C 542.224 92.945 545.674 89.563 547.897 85.609 M 546.342 85.861 C 552.452 84.241 556.575 82.783 565.496 77.892 M 547.218 85.748 C 553.801 83.341 561.033 80.492 565.586 79.222 M 565.131 78.745 C 573.195 82.106 579.669 83.585 587.103 87.008 M 565.143 79.749 C 569.377 81.379 573.798 81.884 586.618 86.539 M 586.877 85.228 C 588.537 89.497 591.639 92.245 595.816 96.251 M 585.976 85.544 C 589.785 88.709 592.953 93.088 594.996 96.446 M 594.459 96.119 C 597.414 100.236 597.936 105.043 600.755 109.85 M 595.723 96.775 C 596.982 99.088 597.615 102.048 599.561 110.248 M 600.894 110.803 C 598.962 113.458 598.362 117.697 599.22 125.527 M 600.452 110.03 C 599.453 114.633 599.17 119.614 599.039 125.307 M 598.894 126.426 C 597.307 128.444 595.808 130.021 594.468 135.929 M 598.964 125.473 C 597.477 129.648 596.245 132.629 594.371 135.475 M 594.138 135.241 C 590.229 139.854 586.859 143.844 583.172 147.554 M 594.221 135.303 C 590.935 139.434 588.08 143.134 583.465 148.464 M 584.303 146.823 C 578.528 148.478 574.421 151.732 568.632 156.492 M 583.507 147.997 C 578.488 150.456 572.252 153.266 567.971 155.001 M 567.351 154.969 C 562.457 156.599 559.495 155.939 549.5 156.616 M 567.09 155.743 C 562.832 154.919 559.038 155.124 549.8 156.196 M 549.556 156.274 C 547.024 154.823 543.419 154.022 537.082 151.882 M 549.045 156.005 C 544.75 154.694 539.572 152.785 537.22 152.619 M 536.587 152.169 C 532.703 147.857 526.236 146.033 522.179 142.062 M 537.847 152.391 C 533.418 150.534 530.698 147.941 521.802 140.649 M 521.371 141.319 C 518.674 137.835 515.64 133.825 512.085 124.657 M 521.13 140.42 C 517.786 135.611 514.52 130.592 510.57 124.169 M 511.954 123.604 C 508.181 115.289 509.256 106.274 508.629 102.251 M 510.554 123.18 C 508.7 116.801 507.986 110.209 507.646 103.164 M 506.907 103.763 C 507.746 98.954 508.321 96.291 510.059 88.252 M 507.667 102.616 C 508.682 97.953 509.119 92.388 509.629 88.759 M 509.339 88.514 C 514.077 84.018 516.472 75.571 521.557 70.73 M 509.967 89.098 C 513.386 83.917 517.299 77.854 521.091 68.944 M 520.975 68.584 C 525.619 67.718 529.562 64.751 540.228 54.038 M 520.293 70.087 C 525.344 66.211 530.707 62.113 539.289 54.675 M 538.029 55.215 C 544.763 53.117 549.288 51.979 562.13 48.763 M 539.537 55.599 C 545.817 52.762 554.676 49.733 560.977 48.286 M 562.488 48.774 C 566.269 48.132 570.576 48.159 577.048 49.453 M 561.372 49.237 C 565.938 49.356 570.964 49.014 577.383 49.205 M 577.733 49.006 C 584.498 52.631 589.83 55.079 602.295 60.076 M 578.542 49.651 C 585.875 52.361 594.352 55.565 601.316 58.577 M 600.839 58.639 C 606.541 63.835 609.822 66.551 619.989 76.677 M 601.355 58.948 C 604.769 62.935 608.48 66.09 618.506 77.41 M 620.027 76.743 C 623.257 85.176 627.461 94.507 628.281 101.162 M 618.66 76.623 C 621.993 86.407 626.249 94.842 629.889 101.856 M 629.906 101.737 C 630.229 106.14 629.378 110.879 630.601 118.931 M 628.939 100.963 C 629.65 105.602 630.062 109.882 630.135 118.861 M 631.391 120.154 C 628.15 126.648 627.36 135.624 623.98 145.354 M 630.512 119.89 C 629.153 125.686 627.009 130.31 623.928 145.796 M 622.629 147.41 C 616.972 154.257 608.574 163.197 607.211 169.297 M 623.31 145.71 C 616.998 152.794 611.59 161.656 605.984 167.986 M 607.489 168.412 C 597.265 173.63 588.248 178.354 581.105 183.209 M 606.037 168.516 C 601.038 171.085 596.679 174.643 580.57 182.978 M 581.699 181.986 C 575.131 185.795 568.454 185.532 560.608 186.853 M 581.095 183.024 C 576.981 183.666 572.11 184.797 562.041 187.039 M 561.78 187.519 C 551.07 185.078 537.107 182.111 531.857 181.921 M 561.803 187.328 C 554.352 186.672 546.341 184.727 532.026 182.614 M 530.89 182.553 C 525.808 181.139 520.641 175.734 503.107 167.193 M 531.004 183.435 C 520.631 177.112 511.673 170.719 505.033 167.411 M 503.729 166.215 C 498.219 157.951 490.327 148.814 484.468 141.139 M 503.926 167.734 C 496.129 157.472 488.303 147.427 484.625 141.457 M 483.929 141.885 C 482.236 132.78 480.675 123.237 477.282 111.566 M 485.707 142.259 C 481.573 133.16 480.016 124.472 477.345 110.682 M 475.796 110.031 C 478.377 98.493 480.998 83.335 481.691 78.343 M 476.945 109.871 C 478.511 101.445 479.469 91.783 482.203 76.881 M 480.687 76.135 C 484.808 68.139 491.719 59.92 498.044 47.445 M 481.382 76.823 C 486.333 68.568 491.537 60.373 498.491 47.103 M 498.414 47.932 C 507.051 41.87 518.187 34.232 528.572 25.403 M 499.715 48.147 C 508.694 40.984 518.684 33.071 527.572 26.939 M 526.122 27.063 C 541.729 21.639 553.421 18.258 561.922 17.573 M 527.187 26.538 C 535.399 25.678 543.768 22.597 561.021 18.332 " style="fill: none; stroke: rgb(135, 37, 167); stroke-width: 5px;"/>
  </g>
  <g transform="matrix(0.438371, -0.898795, 0.898795, 0.438371, -320.174286, 809.619202)" bx:shape="spiral 561.558 110.229 0 92.135 0 1080 1@04811f00">
    <path d="M 561.495 110.153 C 562.812 109.596 563.858 109.484 567.488 108.266 M 561.558 110.182 C 564.028 109.613 566.221 108.735 567.914 108.567 M 568.013 108.415 C 568.436 110.689 568.475 111.795 570.285 115.306 M 567.545 108.708 C 568.975 110.886 569.811 112.822 570.184 115.103 M 570.188 115.371 C 569.121 117.764 568.992 120.005 567.944 121.553 M 570.219 115.502 C 569.963 117.119 568.908 118.95 568.123 121.209 M 568.316 121.738 C 566.131 122.127 564.748 122.82 562.069 125.417 M 567.973 121.563 C 566.014 122.529 564.549 123.874 561.641 125.735 M 561.079 126.254 C 556.236 124.378 552.582 124.701 548.27 124.283 M 561.392 125.806 C 557.996 124.829 555.415 124.654 548.299 123.349 M 547.202 124.087 C 545.784 121.955 544.297 119.759 540.255 116.205 M 547.593 123.46 C 544.432 120.152 541.975 117.42 540.687 115.433 M 541.71 116.057 C 539.078 110.065 539.538 105.977 538.992 97.762 M 540.766 116.152 C 539.285 110.266 539.807 106.183 539.625 97.887 M 540.147 98.005 C 541.474 94.254 545.812 88.768 546.871 86.702 M 538.931 97.058 C 542.224 92.945 545.674 89.563 547.897 85.609 M 546.342 85.861 C 552.452 84.241 556.575 82.783 565.496 77.892 M 547.218 85.748 C 553.801 83.341 561.033 80.492 565.586 79.222 M 565.131 78.745 C 573.195 82.106 579.669 83.585 587.103 87.008 M 565.143 79.749 C 569.377 81.379 573.798 81.884 586.618 86.539 M 586.877 85.228 C 588.537 89.497 591.639 92.245 595.816 96.251 M 585.976 85.544 C 589.785 88.709 592.953 93.088 594.996 96.446 M 594.459 96.119 C 597.414 100.236 597.936 105.043 600.755 109.85 M 595.723 96.775 C 596.982 99.088 597.615 102.048 599.561 110.248 M 600.894 110.803 C 598.962 113.458 598.362 117.697 599.22 125.527 M 600.452 110.03 C 599.453 114.633 599.17 119.614 599.039 125.307 M 598.894 126.426 C 597.307 128.444 595.808 130.021 594.468 135.929 M 598.964 125.473 C 597.477 129.648 596.245 132.629 594.371 135.475 M 594.138 135.241 C 590.229 139.854 586.859 143.844 583.172 147.554 M 594.221 135.303 C 590.935 139.434 588.08 143.134 583.465 148.464 M 584.303 146.823 C 578.528 148.478 574.421 151.732 568.632 156.492 M 583.507 147.997 C 578.488 150.456 572.252 153.266 567.971 155.001 M 567.351 154.969 C 562.457 156.599 559.495 155.939 549.5 156.616 M 567.09 155.743 C 562.832 154.919 559.038 155.124 549.8 156.196 M 549.556 156.274 C 547.024 154.823 543.419 154.022 537.082 151.882 M 549.045 156.005 C 544.75 154.694 539.572 152.785 537.22 152.619 M 536.587 152.169 C 532.703 147.857 526.236 146.033 522.179 142.062 M 537.847 152.391 C 533.418 150.534 530.698 147.941 521.802 140.649 M 521.371 141.319 C 518.674 137.835 515.64 133.825 512.085 124.657 M 521.13 140.42 C 517.786 135.611 514.52 130.592 510.57 124.169 M 511.954 123.604 C 508.181 115.289 509.256 106.274 508.629 102.251 M 510.554 123.18 C 508.7 116.801 507.986 110.209 507.646 103.164 M 506.907 103.763 C 507.746 98.954 508.321 96.291 510.059 88.252 M 507.667 102.616 C 508.682 97.953 509.119 92.388 509.629 88.759 M 509.339 88.514 C 514.077 84.018 516.472 75.571 521.557 70.73 M 509.967 89.098 C 513.386 83.917 517.299 77.854 521.091 68.944 M 520.975 68.584 C 525.619 67.718 529.562 64.751 540.228 54.038 M 520.293 70.087 C 525.344 66.211 530.707 62.113 539.289 54.675 M 538.029 55.215 C 544.763 53.117 549.288 51.979 562.13 48.763 M 539.537 55.599 C 545.817 52.762 554.676 49.733 560.977 48.286 M 562.488 48.774 C 566.269 48.132 570.576 48.159 577.048 49.453 M 561.372 49.237 C 565.938 49.356 570.964 49.014 577.383 49.205 M 577.733 49.006 C 584.498 52.631 589.83 55.079 602.295 60.076 M 578.542 49.651 C 585.875 52.361 594.352 55.565 601.316 58.577 M 600.839 58.639 C 606.541 63.835 609.822 66.551 619.989 76.677 M 601.355 58.948 C 604.769 62.935 608.48 66.09 618.506 77.41 M 620.027 76.743 C 623.257 85.176 627.461 94.507 628.281 101.162 M 618.66 76.623 C 621.993 86.407 626.249 94.842 629.889 101.856 M 629.906 101.737 C 630.229 106.14 629.378 110.879 630.601 118.931 M 628.939 100.963 C 629.65 105.602 630.062 109.882 630.135 118.861 M 631.391 120.154 C 628.15 126.648 627.36 135.624 623.98 145.354 M 630.512 119.89 C 629.153 125.686 627.009 130.31 623.928 145.796 M 622.629 147.41 C 616.972 154.257 608.574 163.197 607.211 169.297 M 623.31 145.71 C 616.998 152.794 611.59 161.656 605.984 167.986 M 607.489 168.412 C 597.265 173.63 588.248 178.354 581.105 183.209 M 606.037 168.516 C 601.038 171.085 596.679 174.643 580.57 182.978 M 581.699 181.986 C 575.131 185.795 568.454 185.532 560.608 186.853 M 581.095 183.024 C 576.981 183.666 572.11 184.797 562.041 187.039 M 561.78 187.519 C 551.07 185.078 537.107 182.111 531.857 181.921 M 561.803 187.328 C 554.352 186.672 546.341 184.727 532.026 182.614 M 530.89 182.553 C 525.808 181.139 520.641 175.734 503.107 167.193 M 531.004 183.435 C 520.631 177.112 511.673 170.719 505.033 167.411 M 503.729 166.215 C 498.219 157.951 490.327 148.814 484.468 141.139 M 503.926 167.734 C 496.129 157.472 488.303 147.427 484.625 141.457 M 483.929 141.885 C 482.236 132.78 480.675 123.237 477.282 111.566 M 485.707 142.259 C 481.573 133.16 480.016 124.472 477.345 110.682 M 475.796 110.031 C 478.377 98.493 480.998 83.335 481.691 78.343 M 476.945 109.871 C 478.511 101.445 479.469 91.783 482.203 76.881 M 480.687 76.135 C 484.808 68.139 491.719 59.92 498.044 47.445 M 481.382 76.823 C 486.333 68.568 491.537 60.373 498.491 47.103 M 498.414 47.932 C 507.051 41.87 518.187 34.232 528.572 25.403 M 499.715 48.147 C 508.694 40.984 518.684 33.071 527.572 26.939 M 526.122 27.063 C 541.729 21.639 553.421 18.258 561.922 17.573 M 527.187 26.538 C 535.399 25.678 543.768 22.597 561.021 18.332 " style="fill: none; stroke: rgb(135, 37, 167); stroke-width: 5px;"/>
  </g>
</svg>