<?xml version="1.0" encoding="utf-8"?>
<svg viewBox="0 0 500 500" xmlns="http://www.w3.org/2000/svg">
  <defs>
    <linearGradient gradientUnits="userSpaceOnUse" x1="289.258" y1="166.796" x2="289.258" y2="200" id="gradient-1" spreadMethod="reflect" gradientTransform="matrix(-0.398817, -0.031083, -0.004095, -0.518071, 764.848206, 240.473495)">
      <stop offset="0" style="stop-color: rgba(103, 22, 141, 1)"/>
      <stop offset="1" style="stop-color: rgba(39, 8, 53, 1)"/>
    </linearGradient>
    <radialGradient gradientUnits="userSpaceOnUse" cx="280.353" cy="176.59" r="36.914" id="gradient-0" gradientTransform="matrix(0.000334, -0.48442, 0.400026, 0.000276, 578.164246, 276.289886)">
      <stop offset="0" style="stop-color: rgba(116, 205, 225, 1)"/>
      <stop offset="1" style="stop-color: rgba(42, 168, 197, 1)"/>
    </radialGradient>
    <linearGradient gradientUnits="userSpaceOnUse" x1="292.321" y1="184.678" x2="292.321" y2="251.395" id="gradient-2" gradientTransform="matrix(-0.399863, 0.011447, -0.006952, -0.425452, 769.683777, 242.791061)">
      <stop offset="0" style="stop-color: rgb(199, 242, 176); stop-opacity: 0;"/>
      <stop offset="1" style="stop-color: rgba(137, 228, 89, 1)"/>
    </linearGradient>
  </defs>
  <path d="M 260.75 150.009 C 260.75 158.2 254.109 164.842 245.917 164.842 C 237.725 164.842 231.083 158.2 231.083 150.009 C 231.083 141.817 237.725 135.175 245.917 135.175 C 254.109 135.175 260.75 141.817 260.75 150.009 Z M 221.275 119.341 C 221.983 119.049 224.228 120.369 224.83 120.731 C 225.126 120.911 224.963 120.827 225.293 121.195 C 226.478 122.515 234.536 130.914 235.645 133.402 C 236.171 134.58 236.034 135.333 235.645 135.874 C 235.258 136.412 234.393 137.116 233.328 136.647 C 230.961 135.603 223.814 124.707 221.894 122.741 C 221.135 121.964 220.644 122.168 220.503 121.658 C 220.342 121.078 220.684 119.585 221.275 119.341 Z M 256.505 112.015 C 257.325 111.361 258.127 111.937 258.514 112.324 C 258.9 112.71 259.097 113.145 258.822 114.333 C 258.11 117.405 251.353 132.472 249.088 133.955 C 248.146 134.572 246.94 134.193 246.77 133.183 C 246.352 130.695 254.326 113.748 256.505 112.015 Z M 269.792 121.813 C 270.829 121.564 272.129 122.046 272.42 122.586 C 272.697 123.101 272.364 123.928 271.647 124.904 C 270.31 126.722 264.98 130.143 262.839 132.474 C 261.172 134.291 260.434 137.102 259.286 137.574 C 258.496 137.898 257.205 137.472 256.969 136.801 C 256.636 135.861 258.029 133.236 259.131 131.547 C 260.358 129.668 262.433 127.776 264.23 126.139 C 265.99 124.538 268.281 122.177 269.792 121.813 Z M 282.153 143.445 C 284.638 143.367 287.293 143.473 287.871 144.218 C 288.281 144.745 288.161 145.851 287.098 146.536 C 284.543 148.18 268.022 150.914 265.467 149.935 C 264.403 149.528 264.43 148.261 264.694 147.617 C 264.994 146.883 266.039 146.445 267.63 145.917 C 270.491 144.968 278.538 143.559 282.153 143.445 Z M 263.612 161.06 C 264.43 160.688 266.06 161.268 267.939 162.296 C 271.147 164.052 280.358 170.685 281.381 172.957 C 281.85 173.999 281.094 174.909 280.608 175.275 C 280.173 175.602 279.774 175.704 278.755 175.275 C 276.123 174.167 264.025 165.822 262.839 163.377 C 262.327 162.321 262.971 161.351 263.612 161.06 Z M 246.925 169.094 C 247.455 168.997 248.657 168.915 249.243 169.867 C 250.438 171.811 251.403 182.447 250.478 184.391 C 250.026 185.343 248.777 185.572 248.161 185.164 C 247.262 184.569 246.808 181.438 246.461 179.138 C 246.056 176.446 245.758 171.213 246.152 169.867 C 246.32 169.294 246.54 169.165 246.925 169.094 Z M 236.418 168.476 C 237.143 168.171 238.423 168.331 238.736 169.249 C 239.366 171.099 236.291 180.022 235.027 182.846 C 234.264 184.55 233.614 185.752 232.709 186.091 C 231.932 186.383 230.425 186.269 230.083 185.318 C 229.441 183.535 232.518 175.58 233.791 172.648 C 234.65 170.671 235.458 168.88 236.418 168.476 Z M 229.928 162.914 C 231.082 162.541 232.077 163.069 232.246 163.686 C 232.474 164.521 231.187 166.492 229.619 168.167 C 227.221 170.729 219.255 177.273 217.567 177.129 C 216.713 177.056 216.297 175.689 216.794 174.502 C 217.84 172.01 227.392 163.732 229.928 162.914 Z M 226.838 152.098 C 228.456 152.039 229.452 152.308 229.774 152.87 C 230.068 153.387 229.951 154.474 229.001 155.188 C 227.006 156.686 217.336 158.425 213.859 158.897 C 211.719 159.186 210.085 159.459 209.224 158.897 C 208.557 158.461 207.803 157.316 208.451 156.579 C 209.921 154.906 223.474 152.221 226.838 152.098 Z M 210.459 133.865 C 211.904 133.402 217.201 135.656 220.04 137.265 C 222.794 138.825 226.69 141.713 227.302 143.29 C 227.658 144.209 227.455 145.489 226.529 145.608 C 224.411 145.881 210.986 138.367 209.687 136.183 C 209.119 135.227 209.643 134.127 210.459 133.865 Z" style="stroke: rgb(0, 0, 0); fill: rgb(241, 217, 59);"/>
  <path d="M 363.484 150.4 C 363.484 158.591 356.843 165.233 348.651 165.233 C 340.459 165.233 333.817 158.591 333.817 150.4 C 333.817 142.208 340.459 135.566 348.651 135.566 C 356.843 135.566 363.484 142.208 363.484 150.4 Z M 324.009 119.732 C 324.717 119.44 326.962 120.76 327.564 121.122 C 327.86 121.302 327.697 121.218 328.027 121.586 C 329.212 122.906 337.27 131.305 338.379 133.793 C 338.905 134.971 338.768 135.724 338.379 136.265 C 337.992 136.803 337.127 137.507 336.062 137.038 C 333.695 135.994 326.548 125.098 324.628 123.132 C 323.869 122.355 323.378 122.559 323.237 122.049 C 323.076 121.469 323.418 119.976 324.009 119.732 Z M 359.239 112.406 C 360.059 111.752 360.861 112.328 361.248 112.715 C 361.634 113.101 361.831 113.536 361.556 114.724 C 360.844 117.796 354.087 132.863 351.822 134.346 C 350.88 134.963 349.674 134.584 349.504 133.574 C 349.086 131.086 357.06 114.139 359.239 112.406 Z M 372.526 122.204 C 373.563 121.955 374.863 122.437 375.154 122.977 C 375.431 123.492 375.098 124.319 374.381 125.295 C 373.044 127.113 367.714 130.534 365.573 132.865 C 363.906 134.682 363.168 137.493 362.02 137.965 C 361.23 138.289 359.939 137.863 359.703 137.192 C 359.37 136.252 360.763 133.627 361.865 131.938 C 363.092 130.059 365.167 128.167 366.964 126.53 C 368.724 124.929 371.015 122.568 372.526 122.204 Z M 384.887 143.836 C 387.372 143.758 390.027 143.864 390.605 144.609 C 391.015 145.136 390.895 146.242 389.832 146.927 C 387.277 148.571 370.756 151.305 368.201 150.326 C 367.137 149.919 367.164 148.652 367.428 148.008 C 367.728 147.274 368.773 146.836 370.364 146.308 C 373.225 145.359 381.272 143.95 384.887 143.836 Z M 366.346 161.451 C 367.164 161.079 368.794 161.659 370.673 162.687 C 373.881 164.443 383.092 171.076 384.115 173.348 C 384.584 174.39 383.828 175.3 383.342 175.666 C 382.907 175.993 382.508 176.095 381.489 175.666 C 378.857 174.558 366.759 166.213 365.573 163.768 C 365.061 162.712 365.705 161.742 366.346 161.451 Z M 349.659 169.485 C 350.189 169.388 351.391 169.306 351.977 170.258 C 353.172 172.202 354.137 182.838 353.212 184.782 C 352.76 185.734 351.511 185.963 350.895 185.555 C 349.996 184.96 349.542 181.829 349.195 179.529 C 348.79 176.837 348.492 171.604 348.886 170.258 C 349.054 169.685 349.274 169.556 349.659 169.485 Z M 339.152 168.867 C 339.877 168.562 341.157 168.722 341.47 169.64 C 342.1 171.49 339.025 180.413 337.761 183.237 C 336.998 184.941 336.348 186.143 335.443 186.482 C 334.666 186.774 333.159 186.66 332.817 185.709 C 332.175 183.926 335.252 175.971 336.525 173.039 C 337.384 171.062 338.192 169.271 339.152 168.867 Z M 332.662 163.305 C 333.816 162.932 334.811 163.46 334.98 164.077 C 335.208 164.912 333.921 166.883 332.353 168.558 C 329.955 171.12 321.989 177.664 320.301 177.52 C 319.447 177.447 319.031 176.08 319.528 174.893 C 320.574 172.401 330.126 164.123 332.662 163.305 Z M 329.572 152.489 C 331.19 152.43 332.186 152.699 332.508 153.261 C 332.802 153.778 332.685 154.865 331.735 155.579 C 329.74 157.077 320.07 158.816 316.593 159.288 C 314.453 159.577 312.819 159.85 311.958 159.288 C 311.291 158.852 310.537 157.707 311.185 156.97 C 312.655 155.297 326.208 152.612 329.572 152.489 Z M 313.193 134.256 C 314.638 133.793 319.935 136.047 322.774 137.656 C 325.528 139.216 329.424 142.104 330.036 143.681 C 330.392 144.6 330.189 145.88 329.263 145.999 C 327.145 146.272 313.72 138.758 312.421 136.574 C 311.853 135.618 312.377 134.518 313.193 134.256 Z" style="stroke: rgb(0, 0, 0); fill: rgb(241, 217, 59);"/>
  <ellipse style="stroke: rgb(0, 0, 0); fill: rgb(73, 84, 191);" cx="426.758" cy="134.961" rx="16.602" ry="11.523"/>
  <ellipse style="stroke: rgb(0, 0, 0); fill: rgb(73, 84, 191);" cx="452.93" cy="127.344" rx="21.68" ry="12.891"/>
  <ellipse style="stroke: rgb(0, 0, 0); fill: rgb(73, 84, 191);" cx="474.609" cy="141.016" rx="11.719" ry="10.547"/>
  <ellipse style="stroke: rgb(0, 0, 0); fill: rgb(73, 84, 191);" cx="447.266" cy="141.016" rx="12.891" ry="7.813"/>
  <path d="M 473.047 141.602 C 473.047 147.319 463.078 151.954 450.781 151.954 C 438.484 151.954 428.515 147.319 428.515 141.602 C 428.515 135.885 438.484 131.25 450.781 131.25 C 463.078 131.25 473.047 135.885 473.047 141.602 Z M 420.023 152.641 C 420.89 151.966 422.435 152.404 422.953 153.617 C 424.032 156.145 420.25 169.774 420.219 172.758 C 420.206 173.96 420.647 174.19 420.609 174.711 C 420.58 175.114 420.539 175.458 420.219 175.688 C 419.761 176.015 418.349 176.287 417.68 176.078 C 417.083 175.892 416.602 175.543 416.313 174.711 C 415.806 173.257 415.893 169.976 416.313 166.898 C 416.853 162.932 418.404 153.901 420.023 152.641 Z M 437.992 156.547 C 438.747 156.153 440.383 156.326 440.922 157.523 C 442.02 159.962 440.344 174.139 438.773 175.688 C 438.003 176.448 436.448 175.814 435.844 174.711 C 434.748 172.711 435.647 164.219 436.234 161.039 C 436.622 158.943 437.09 157.017 437.992 156.547 Z M 454.398 156.156 C 455.082 155.53 456.79 156.099 457.328 157.133 C 458.229 158.862 457.496 167.218 456.352 168.266 C 455.668 168.892 453.96 168.323 453.422 167.289 C 452.521 165.56 453.254 157.204 454.398 156.156 Z M 473.539 154.594 C 474.21 154.47 475.707 154.346 476.469 155.57 C 478.064 158.135 479.597 172.537 478.422 175.102 C 477.861 176.326 476.303 176.873 475.492 176.078 C 473.756 174.377 472.091 158.018 472.563 155.57 C 472.722 154.742 473.053 154.683 473.539 154.594 Z" style="stroke: rgb(0, 0, 0); fill: rgb(73, 84, 191);"/>
  <ellipse style="stroke: rgb(0, 0, 0); fill: rgb(73, 84, 191);" cx="528.711" cy="135.742" rx="16.602" ry="11.523"/>
  <ellipse style="stroke: rgb(0, 0, 0); fill: rgb(73, 84, 191);" cx="554.883" cy="128.125" rx="21.68" ry="12.891"/>
  <ellipse style="stroke: rgb(0, 0, 0); fill: rgb(73, 84, 191);" cx="576.563" cy="141.797" rx="11.719" ry="10.547"/>
  <ellipse style="stroke: rgb(0, 0, 0); fill: rgb(73, 84, 191);" cx="549.219" cy="141.797" rx="12.891" ry="7.813"/>
  <path d="M 575.001 142.383 C 575.001 148.1 565.032 152.735 552.735 152.735 C 540.438 152.735 530.469 148.1 530.469 142.383 C 530.469 136.666 540.438 132.031 552.735 132.031 C 565.032 132.031 575.001 136.666 575.001 142.383 Z M 521.977 153.422 C 522.843 152.747 524.389 153.185 524.907 154.398 C 525.986 156.926 522.203 170.555 522.173 173.539 C 522.16 174.741 522.601 174.971 522.563 175.492 C 522.534 175.895 522.492 176.239 522.173 176.469 C 521.715 176.796 520.303 177.068 519.634 176.859 C 519.037 176.673 518.556 176.324 518.266 175.492 C 517.76 174.038 517.847 170.757 518.266 167.679 C 518.807 163.713 520.357 154.682 521.977 153.422 Z M 539.946 157.328 C 540.701 156.934 542.337 157.107 542.876 158.304 C 543.974 160.743 542.298 174.92 540.727 176.469 C 539.957 177.229 538.402 176.595 537.798 175.492 C 536.702 173.492 537.601 165 538.188 161.82 C 538.576 159.724 539.044 157.798 539.946 157.328 Z M 556.352 156.937 C 557.036 156.311 558.744 156.88 559.282 157.914 C 560.183 159.643 559.45 167.999 558.306 169.047 C 557.622 169.673 555.914 169.104 555.376 168.07 C 554.475 166.341 555.208 157.985 556.352 156.937 Z M 575.493 155.375 C 576.164 155.251 577.661 155.127 578.423 156.351 C 580.018 158.916 581.551 173.318 580.376 175.883 C 579.815 177.107 578.257 177.654 577.446 176.859 C 575.71 175.158 574.045 158.799 574.517 156.351 C 574.676 155.523 575.007 155.464 575.493 155.375 Z" style="stroke: rgb(0, 0, 0); fill: rgb(73, 84, 191);"/>
  <path style="fill: rgb(216, 216, 216); stroke-width: 6px; stroke: rgb(220, 23, 23);" d="M 508.594 187.501 L 593.75 107.813"/>
  <path style="fill: rgb(216, 216, 216); stroke-width: 6px; stroke: rgb(220, 23, 23);" d="M 305.859 192.579 L 391.015 112.891"/>
  <path style="fill: rgb(216, 216, 216); stroke-width: 6px; stroke: rgb(220, 23, 23);" d="M 305.859 192.579 L 391.015 112.891"/>
  <path style="fill: url(#gradient-2);" d="M 627.046 138.942 L 613.017 165.63 C 617.009 188.585 690.123 183.862 686.879 165.208 L 673.485 139.36 L 627.046 138.942 Z"/>
  <ellipse style="stroke: rgb(0, 0, 0); fill: url(#gradient-0);" cx="649.035" cy="129.992" rx="14.767" ry="12.11"/>
  <ellipse style="stroke: rgb(0, 0, 0); fill: url(#gradient-1);" cx="648.723" cy="138.43" rx="34.143" ry="6.641"/>
  <ellipse style="stroke: rgb(0, 0, 0); fill: rgb(255, 255, 39);" cx="619.062" cy="138.596" rx="0.938" ry="0.938"/>
  <ellipse style="stroke: rgb(0, 0, 0); fill: rgb(255, 255, 39);" cx="628.339" cy="140.574" rx="0.938" ry="0.938"/>
  <ellipse style="stroke: rgb(0, 0, 0); fill: rgb(255, 255, 39);" cx="637.203" cy="141.995" rx="0.938" ry="0.938"/>
  <ellipse style="stroke: rgb(0, 0, 0); fill: rgb(255, 255, 39);" cx="645.238" cy="142.557" rx="0.938" ry="0.938"/>
  <ellipse style="stroke: rgb(0, 0, 0); fill: rgb(255, 255, 39);" cx="653.957" cy="142.482" rx="0.938" ry="0.938"/>
  <ellipse style="stroke: rgb(0, 0, 0); fill: rgb(255, 255, 39);" cx="662.16" cy="141.71" rx="0.938" ry="0.938"/>
  <ellipse style="stroke: rgb(0, 0, 0); fill: rgb(255, 255, 39);" cx="671.73" cy="140.559" rx="0.938" ry="0.938"/>
  <ellipse style="stroke: rgb(0, 0, 0); fill: rgb(255, 255, 39);" cx="679.13" cy="138.417" rx="0.938" ry="0.938"/>
  <rect width="500" height="100" style="fill: none;" x="200" y="100"/>
</svg>