<?xml version="1.0" encoding="utf-8"?>
<svg viewBox="0 0 500 500" xmlns="http://www.w3.org/2000/svg" xmlns:bx="https://boxy-svg.com">
  <defs>
    <bx:grid x="0" y="0" width="101.779" height="101.334"/>
  </defs>
  <g transform="matrix(1, 0, 0, 1, 87.552521, 149.764877)" style="pointer-events: none;">
    <g>
      <path d="M 193.507 130.603 C 200.235 117.245 219.969 112.689 243.988 83.824 M 194.443 133.068 C 214.657 117.873 229.411 97.775 249.328 81.635 M 200.925 138.701 C 220.535 121.702 239.1 102.788 249.54 78.835 M 203.449 138.737 C 212.584 128.531 224.28 111.294 246.396 81.503 M 188.875 155.209 C 215.274 122.46 243.333 98.351 266.975 81.526 M 192.042 155.142 C 215.987 124.644 245.289 96.885 265.249 75.861 M 202.539 164.523 C 214.279 142.848 229.712 116.99 265.904 80.938 M 199.908 162.152 C 224.051 127.23 249.967 99.242 261.061 77.283 M 184.862 171.642 C 227.469 126.184 259.297 88.343 283.28 73.361 M 188.831 172.273 C 215.57 140.929 246.53 110.305 280.972 75.938 M 198.026 181.335 C 215.293 143.854 248.477 111.173 283.862 71.664 M 193.16 179.623 C 220.087 147.215 248.964 112.599 281.147 73.925 M 186.029 188.035 C 223.135 152.061 253.18 115.923 291.709 77.096 M 190.773 184.039 C 223.503 154.598 250.823 124.491 293.046 77.494 M 200.142 191.376 C 232.696 150.298 272.525 97.218 287.415 76.686 M 197.724 190.225 C 223.77 151.976 261.872 112.462 291.055 78.053 M 187.716 200.523 C 217.772 173.897 249.657 141.318 302.188 75.098 M 193.032 200.299 C 232.753 157.144 273.476 112.294 302.951 81.439 M 203.22 203.286 C 247.004 161.47 281.747 120.459 299.282 77.079 M 198.915 203.314 C 218.489 174.726 245.449 146.411 303.119 78.574 M 193.754 209.658 C 229.161 184.019 256.788 155.87 315.404 82.368 M 193.081 211.612 C 228.185 173.235 259.26 138.218 315.15 79.194 M 200.887 220.924 C 252.508 170.021 291.596 119.07 314.544 77.349 M 202.76 218.146 C 243.779 167.466 287.133 119.738 314.256 82.505 M 195.445 223.43 C 236.833 183.894 279.439 141.369 324.776 79.872 M 197.28 219.859 C 231.142 182.271 258.864 155.823 325.258 82.629 M 211.035 227.986 C 232.373 186.919 258.426 152.059 330.215 84.767 M 205.772 226.899 C 260.186 178.662 309.411 118.98 326.332 80.516 M 207.713 231.791 C 236.526 202.005 267.402 172.561 338.807 84.982 M 206.433 226.56 C 249.693 179.903 290.016 132.081 333.188 88.703 M 210.785 236.131 C 232.845 198.507 261.632 164.432 330.789 87.813 M 212.708 235.19 C 242.933 202.67 267.157 171.943 336.315 85.158 M 215.21 240.577 C 248.572 202.513 279.304 170.486 340.315 88.869 M 212.489 234.602 C 245.099 192.077 276.127 155.033 343.793 90.453 M 220.581 245.301 C 260.988 186.321 308.528 132.665 339.48 94.764 M 219.471 245.402 C 240.361 207.593 265.988 176.371 341.51 91.269 M 213.061 240.745 C 270.959 198.494 323.021 144.41 348.88 96.938 M 216.29 245.073 C 239.038 220.293 266.472 192.217 351.104 99.032 M 225.342 249.758 C 249.642 217.17 270.737 185.632 351.862 100.532 M 226.255 253.521 C 264.748 185.128 316.19 126.236 351.401 97.998 M 229.204 249.845 C 281.573 192.932 328.186 147.092 358.418 108.161 M 226.908 252.738 C 256.274 199.459 295.037 160.023 358.703 104.64 M 233.6 261.16 C 271.298 201.57 316.12 148.782 356.242 102.794 M 232.286 258.408 C 255.878 212.683 289.671 172.653 357.424 106.54 M 235.027 255.169 C 266.124 211.81 310.084 161.704 362.803 117.34 M 232.087 258.184 C 258.215 228.1 286.561 193.228 363.955 110.99 M 243.337 260.904 C 283.009 205.166 331.551 156.703 368.491 113.458 M 243.06 264.747 C 278.506 207.378 321.007 159.08 363.197 113.207 M 243.275 262.158 C 274.955 233.782 311.049 209.369 373.605 123.698 M 240.942 261.026 C 283.757 216.866 323.265 175.96 371.136 120.896 M 247.891 266.938 C 289.797 213.272 336.971 166.528 366.971 121.254 M 248.646 267.051 C 282.536 231.544 308.429 197.454 370.049 122.609 M 250.88 269.063 C 294.269 224.314 338.747 173.977 372.786 133.753 M 249.797 266.773 C 289.494 218.566 330.867 171.686 376.335 129.949 M 261.588 271.619 C 299.256 226.101 339.87 173.669 374.038 131.406 M 258.521 274.925 C 298.904 226.772 339.944 171.042 375.721 132.134 M 260.641 272.377 C 304.087 223.792 350.638 175.288 384.322 134.617 M 263.862 269.257 C 289.372 228.894 323.475 191.75 383.87 136.615 M 267.822 274.746 C 310.734 228.31 347.599 172.401 380.462 138.932 M 268.048 277.097 C 300.119 235.532 330.692 198.229 381.586 137.444 M 271.384 268.95 C 316.806 226.464 348.192 187.212 382.871 149.806 M 273.592 271.147 C 311.972 233.601 343.259 198.283 383.965 152.046 M 282.811 276.475 C 320.568 230.288 360.975 175.86 382.895 147.655 M 280.835 280.334 C 303.773 247.571 334.143 211.105 384.12 151.489 M 289.117 270.764 C 320.452 250.097 346.201 226.121 391.664 166.684 M 284.241 271.125 C 317.463 241.482 342.325 215.325 386.23 164.322 M 293.158 282.894 C 315.436 257.076 340.124 236.761 389.76 162.045 M 292.29 278.215 C 318.877 255.812 342.525 224.835 389.986 164.146 M 304.689 272.655 C 335.084 234.725 367.016 207.755 393.158 172.975 M 302.725 268.412 C 322.677 246.269 343.59 226.248 390.124 174.964 M 307.105 273.748 C 335.811 249.106 366.851 213.996 387.11 177.732 M 308.681 274.057 C 333.397 254.431 353.673 232.432 391.097 174.132 M 318.769 264.54 C 336.093 251.982 345.228 235.365 388.173 198.231 M 321.199 261.185 C 340.614 237.433 364.341 212.663 384.288 194.404 M 333.515 269.858 C 339.144 240.344 359.181 216.765 388.558 195.374 M 330.716 270.135 C 343.958 242.296 363.853 218.548 386.946 198.276 " style="fill: none; stroke: rgb(181, 239, 138); stroke-width: 7px;"/>
      <path d="M 385.735 168.875 C 386.158 180.988 380.338 190.519 378.254 211.362 M 383.943 174.846 C 387.127 182.688 382.436 194.616 379.502 213.112 M 373.563 210.903 C 367.437 222.396 362.298 223.522 359.436 241.938 M 377.433 209.865 C 368.934 221.65 362.632 237.384 354.762 242.195 M 354.018 240.542 C 345.192 250.277 336.947 252.912 322.217 264.44 M 355.313 243.504 C 349.714 249.099 342.232 255.953 323.842 262.6 M 327.568 263.765 C 305.973 268.549 292.578 273.66 287.494 271.601 M 324.033 263.143 C 318.201 265.166 310.346 267.775 288.01 274.8 M 284.49 274.023 C 271.19 270.776 257.847 261.677 245.168 260.225 M 287.519 272.346 C 272.427 269.676 258.168 267.044 248.488 265.754 M 243.866 264.239 C 233.43 252.183 226.006 251.516 212.901 245.325 M 247.353 263.465 C 237.014 257.608 225.359 252.882 217.196 243.464 M 211.142 240.945 C 211.672 233.853 210.165 231.434 193.676 212.638 M 213.515 242.99 C 211.977 235.102 208.596 229.389 195.303 209.896 M 190.879 213.597 C 194.759 200.664 189.005 189.526 187.186 174.476 M 192.133 213.679 C 195.721 201.501 191.473 192.485 187.203 172.848 M 188.954 176.824 C 184.776 162.674 191.091 161.474 196.243 129.366 M 185.659 172.619 C 189.861 163.484 188.455 154.68 195.704 135.2 M 191.358 134.475 C 207.29 118.697 207.893 110.468 212.632 105.865 M 192.663 132.683 C 199.258 121.748 208.923 107.165 215.084 103.941 M 214.459 106.622 C 227.867 103.182 231.923 95.964 246.208 77.562 M 214.681 103.948 C 226.2 93.361 237.356 86.523 248.96 80.784 M 251.292 81.375 C 260.167 79.849 269.595 71.955 287.433 69.92 M 246.49 79.72 C 257.101 74.711 265.617 75.675 284.626 74.425 M 289.301 75.717 C 292.288 70.891 300.343 73.25 329.343 78.135 M 287.242 71.785 C 298.088 75.251 306.049 74.056 326.796 80.206 M 323.104 80.96 C 334.827 86.288 338.108 85.376 360.535 102.443 M 323.611 80.875 C 335.459 88.932 343.767 96.631 356.385 103.642 M 356.676 98.059 C 365.187 107.786 364.41 116.773 376.557 134.658 M 357.572 101.795 C 363.814 117.599 371.241 128.939 376.688 135.168 M 377.95 133.349 C 380.82 143.672 378.438 145.7 383.471 170.173 M 378.978 134.972 C 379.754 144.179 381.646 151.779 387.323 173.351 " style="fill: none; stroke: rgb(0, 0, 0); stroke-width: 6px;"/>
    </g>
    <g transform="matrix(1, 0, 0, 1, -1.545595, -3.477589)">
      <path d="M 219.133 142.28 C 223.356 132.386 240.592 130.704 257.149 109.84 M 220.07 144.744 C 235.947 134.218 246.522 118.927 262.489 107.651 M 226.552 150.377 C 241.032 138.553 255.23 124.661 262.702 104.851 M 229.076 150.414 C 234.781 143.716 243.491 129.914 259.557 107.519 M 208.597 173.678 C 233.017 143.731 258.667 122.395 280.136 107.542 M 211.764 173.611 C 233.486 145.877 260.221 121.072 278.41 101.876 M 222.26 182.992 C 232.365 163.124 245.955 139.388 279.065 106.954 M 219.629 180.621 C 241.048 148.646 264.493 123.501 274.222 103.299 M 211.144 182.563 C 247.914 144.393 273.991 113.167 295.129 100.886 M 215.113 183.194 C 237.428 157.233 263.545 132.181 292.822 103.463 M 224.308 192.257 C 237.393 159.669 265.638 132.67 295.711 99.189 M 219.442 190.544 C 241.811 163.314 266.011 134.078 292.996 101.451 M 212.311 198.957 C 244.775 168.544 270.484 137.393 302.902 105.376 M 217.055 194.96 C 244.512 170.443 267.66 145.135 304.239 105.774 M 226.424 202.298 C 252.81 168.201 286.615 122.05 298.608 104.966 M 224.006 201.146 C 245.424 168.783 277.969 135.662 302.248 106.334 M 217.278 207.672 C 243.034 185.597 270.121 158.537 314.037 102.624 M 222.595 207.447 C 255.958 171.502 289.976 134.364 314.8 108.964 M 232.783 210.434 C 269.133 175.651 297.486 141.99 311.131 104.604 M 228.478 210.462 C 244.39 186.518 266.886 163.338 314.968 106.099 M 227.253 212.278 C 256.345 191.886 278.694 169.808 325.941 111.403 M 226.58 214.232 C 254.633 183.584 279.683 155.498 325.687 108.228 M 234.386 223.544 C 276.344 181.886 306.718 140.958 325.081 106.383 M 236.259 220.766 C 268.668 179.558 303.433 141.712 324.793 111.54 M 227.632 227.559 C 260.875 196.845 295.903 163.038 330.721 114.19 M 229.467 223.988 C 256.447 194.211 278.782 173.958 331.202 116.947 M 243.222 232.116 C 259.407 198.969 278.849 171.713 336.159 119.085 M 237.959 231.029 C 280.318 192.94 319.314 145.026 332.276 114.834 M 243.181 232.147 C 264.848 208.244 289.208 186.295 344.096 120.054 M 241.9 226.916 C 275.212 192.322 305.262 156.317 338.477 123.775 M 246.252 236.487 C 263.366 207.03 285.573 180.525 336.078 122.885 M 248.176 235.546 C 270.908 210.47 288.779 187.051 341.604 120.231 M 252.646 238.669 C 277.029 209.879 300.584 186.109 345.603 123.941 M 249.924 232.693 C 274.458 201.378 297.213 173.85 349.082 125.526 M 258.016 243.393 C 287.813 197.459 323.721 157.183 344.768 129.837 M 256.907 243.493 C 272.431 214.851 291.503 191.169 346.798 126.342 M 252.465 236.572 C 295.918 207.94 334.752 169.075 352.201 134.275 M 255.694 240.9 C 272.619 222.699 292.769 203.003 354.424 136.369 M 264.745 245.585 C 282.296 222.558 295.782 199.773 355.182 137.869 M 265.659 249.348 C 292.277 198.713 329.507 156.171 354.721 135.334 M 271.888 241.899 C 307.121 203.532 338.776 174.9 357.802 150.026 M 269.592 244.792 C 288.951 208.011 315.759 182.328 358.087 146.505 M 276.284 253.214 C 300.457 213.079 330.705 177.057 355.626 144.659 M 274.97 250.462 C 290.371 218.794 312.877 191.749 356.808 148.405 M 280.992 243.45 C 299.754 218.534 328.803 185.583 359.563 162.224 M 278.051 246.464 C 295.709 227.236 312.33 205.853 360.715 155.874 M 289.301 249.185 C 310.819 214.7 341.94 186.278 365.251 158.342 M 289.024 253.028 C 310.192 216.257 335.931 187.242 359.957 158.091 M 290.552 248.929 C 306.983 231.462 330.747 221.234 366.428 173.11 M 288.218 247.797 C 312.904 223.636 335.913 201.71 363.96 170.308 M 295.167 253.709 C 317.631 223.228 347.258 196.67 359.794 170.666 M 295.923 253.822 C 315.449 234.003 329.007 214.102 362.872 172.021 M 306.029 246.778 C 328.243 226.574 351.362 200.808 366.265 182.41 M 304.946 244.488 C 325.764 221.651 346.108 198.963 369.814 178.606 M 316.737 249.333 C 332.066 228.997 351.481 200.953 367.517 180.063 M 313.67 252.639 C 333.459 228.894 351.853 199.214 369.2 180.791 " style="fill: none; stroke: rgb(101, 82, 77); stroke-width: 7px;"/>
    </g>
  </g>
  <path fill="rgb(255,0,0)" stroke="rgb(255,0,0)" stroke-width="0" d="M 988.553 422.003 C 989.368 421.888 989.889 421.815 990.411 422.003 C 990.899 422.178 991.352 422.383 991.618 423.024 C 992.064 424.099 991.925 427.059 991.804 428.784 C 991.697 430.296 991.666 431.576 991.061 432.871 C 990.401 434.282 989.347 435.637 987.81 436.865 C 985.905 438.387 983.177 439.591 980.007 440.952 C 976.038 442.657 967.388 444.282 965.423 446.061 C 964.419 446.97 964.742 448.08 964.68 448.848 C 964.632 449.438 964.999 449.889 964.866 450.334 C 964.729 450.789 964.372 451.294 963.844 451.542 C 963.164 451.86 961.597 451.947 960.872 451.727 C 960.309 451.557 959.963 451.288 959.664 450.706 C 959.221 449.843 960.229 447.424 959.014 446.525 C 957.098 445.109 949.346 446.711 945.824 445.968 C 943.053 445.384 940.774 444.167 939.135 443.181 C 937.903 442.44 937.389 442.061 936.442 440.859 C 935.06 439.106 932.827 435.435 931.983 432.871 C 931.244 430.628 930.916 427.664 931.24 426.368 C 931.435 425.588 931.894 425.246 932.447 424.975 C 933.065 424.673 933.505 424.352 934.863 424.789 C 938.285 425.891 951.364 435.289 955.67 437.608 C 957.966 438.845 959.317 439.861 960.314 439.652 C 961.037 439.5 961.078 438.122 961.615 437.794 C 962.091 437.503 962.808 437.496 963.287 437.608 C 963.724 437.711 963.687 438.534 964.401 438.351 C 966.505 437.812 976.31 427.92 979.635 425.532 C 981.469 424.216 982.101 423.884 983.537 423.303 C 985.057 422.688 987.325 422.175 988.553 422.003 Z" style="fill: rgb(166, 209, 48); stroke: rgb(129, 151, 57); stroke-width: 2px;"/>
  <path fill="rgb(255,0,0)" stroke="rgb(255,0,0)" stroke-width="0" d="M 865.893 178.794 C 865.47 178.705 865.058 178.601 864.658 178.485 C 864.197 178.581 863.721 178.633 863.106 178.524 C 861.086 178.164 857.988 176.696 855.861 175.365 C 853.836 174.1 852.22 172.638 850.566 170.814 C 848.763 168.825 846.594 166.045 845.55 163.754 C 844.654 161.789 844.502 160.045 844.249 157.995 C 843.978 155.792 843.686 152.243 844.064 150.935 C 844.271 150.217 844.521 149.981 845.085 149.728 C 845.88 149.371 847.33 149.017 848.801 149.542 C 851.025 150.336 856.212 155.226 857.068 155.951 C 857.299 156.147 857.147 156.035 857.347 156.23 C 857.986 156.855 860.723 159.775 862.549 161.246 C 864.32 162.674 865.818 163.703 868.122 164.962 C 871.012 166.541 877.679 169.609 878.897 169.792 C 879.241 169.844 879.246 169.867 879.362 169.606 C 879.704 168.836 879.823 164.372 879.362 162.082 C 878.93 159.94 878.298 157.192 876.854 156.23 C 875.448 155.294 872.59 156.72 870.909 156.23 C 869.396 155.79 868.179 154.834 867.1 153.722 C 865.958 152.545 864.663 150.335 864.314 149.263 C 864.103 148.617 864.149 148.222 864.314 147.777 C 864.482 147.321 864.894 146.803 865.335 146.57 C 865.787 146.33 866.547 146.327 867.007 146.384 C 867.381 146.43 867.53 146.702 867.936 146.755 C 868.496 146.828 869.296 146.317 870.166 146.57 C 871.398 146.928 873.172 148.929 874.624 149.542 C 875.889 150.076 877.61 150.889 878.34 150.285 C 879.198 149.575 878.391 145.747 878.804 144.619 C 879.052 143.943 879.385 143.645 879.826 143.411 C 880.278 143.172 880.977 143.055 881.498 143.226 C 882.068 143.412 882.751 143.918 883.077 144.619 C 883.492 145.508 882.43 148.164 883.356 148.427 C 884.879 148.86 892.652 142.25 894.688 141.554 C 895.578 141.249 895.877 141.377 896.361 141.554 C 896.834 141.726 897.33 142.105 897.568 142.575 C 897.832 143.097 898.077 143.733 897.754 144.619 C 897.184 146.181 894.182 149.326 892.459 151.214 C 890.94 152.879 889.432 154.707 888 155.487 C 886.884 156.095 885.432 155.032 884.749 156.137 C 883.541 158.096 883.781 169.556 884.919 170.988 C 885.401 170.73 886.065 170.251 886.85 169.623 C 887.562 168.661 888.392 167.453 889.301 166.634 C 891.723 164.45 895.543 161.061 898.872 158.999 C 899.181 158.749 899.46 158.533 899.704 158.358 C 901.538 157.042 902.17 156.71 903.606 156.129 C 905.074 155.535 907.24 155.036 908.493 154.848 C 908.662 154.755 908.829 154.658 908.994 154.558 C 911.771 152.865 914.661 150.126 916.332 148.52 C 917.459 147.437 917.893 146.257 918.654 145.826 C 919.218 145.508 919.823 145.482 920.326 145.641 C 920.848 145.806 921.396 145.974 921.719 146.848 C 922.398 148.68 922.193 155.643 921.905 158.552 C 921.704 160.585 921.598 161.631 920.791 163.197 C 919.829 165.061 917.636 167.37 916.053 168.863 C 914.693 170.146 913.598 170.888 911.966 171.836 C 910.048 172.949 908.124 173.813 905.092 174.994 C 900.756 176.683 889.468 178.772 887.536 180.846 C 886.583 181.869 887.8 183.096 887.536 184.004 C 887.294 184.838 887.001 185.688 886.143 186.141 C 884.937 186.776 881.417 186.86 880.198 186.512 C 879.435 186.294 879.218 186.003 878.804 185.305 C 878.154 184.208 878.702 181.039 877.225 179.824 C 876.628 179.332 875.629 178.996 874.464 178.762 C 871.511 178.856 867.968 179.232 865.893 178.794 Z" style="fill: rgb(166, 209, 48); stroke: rgb(129, 151, 57); stroke-width: 2px;"/>
  <path fill="rgb(255,0,0)" stroke="rgb(255,0,0)" stroke-width="0" d="M 921.261 279.973 C 922.509 279.681 923.498 280.42 923.955 280.995 C 924.353 281.497 924.403 282.268 924.141 283.038 C 923.769 284.129 921.906 286.031 921.075 286.847 C 920.527 287.385 920.161 287.432 919.682 287.869 C 919.115 288.385 918.697 289.134 917.917 289.819 C 916.926 290.691 915.355 291.986 914.016 292.606 C 912.779 293.178 910.984 292.456 910.207 293.535 C 909.123 295.04 909.569 302.034 909.835 302.545 C 909.903 302.675 909.877 302.564 910.114 302.452 C 911.288 301.898 920.352 297.367 924.233 294.835 C 927.47 292.725 930.58 289.294 932.222 288.519 C 933.021 288.142 933.41 288.187 933.894 288.333 C 934.366 288.476 934.831 288.687 935.102 289.355 C 935.583 290.545 935.676 294.032 935.287 296.043 C 934.929 297.901 933.984 299.616 933.058 301.059 C 932.195 302.404 931.508 303.294 929.993 304.496 C 927.867 306.182 923.883 308.404 920.704 309.884 C 917.593 311.332 912.662 311.18 911.136 313.321 C 909.706 315.326 910.211 321.388 911.229 321.959 C 912.129 322.464 913.777 319.575 916.245 318.058 C 920.112 315.68 928.114 312.495 933.708 309.326 C 939.223 306.202 946.805 301.692 949.592 299.201 C 951.092 297.862 951.133 296.45 951.915 295.95 C 952.236 295.744 952.585 295.666 952.916 295.664 C 952.959 295.627 952.997 295.594 953.029 295.566 C 953.197 295.42 953.19 295.37 953.401 295.38 C 953.847 295.4 955.49 295.878 955.909 296.402 C 956.256 296.834 956.219 297.403 956.095 298.074 C 956.052 298.307 955.973 298.606 955.868 298.932 C 956.57 300.704 956.392 305.453 956.095 307.363 C 956.007 307.925 955.883 308.438 955.726 308.879 C 956.054 310.942 956.164 315.652 955.723 318.522 C 955.33 321.085 954.48 323.54 953.494 325.396 C 952.65 326.984 951.605 328.249 950.428 329.205 C 949.326 330.1 948.543 330.391 946.713 331.062 C 943.716 332.161 937.305 333.833 932.965 334.778 C 928.983 335.645 924.754 335.887 921.633 336.636 C 919.139 337.234 916.353 337.461 915.409 338.679 C 915.354 338.751 915.307 338.828 915.269 338.911 C 915.512 339.742 915.692 340.557 915.762 341.177 C 915.845 341.237 915.915 341.298 915.966 341.36 C 916.324 341.792 916.147 342.441 916.152 343.032 C 916.157 343.673 916.194 344.518 915.966 345.076 C 915.761 345.579 915.401 346.048 914.945 346.284 C 914.457 346.536 913.792 346.577 913.087 346.469 C 912.747 346.417 912.288 346.314 911.824 346.173 C 909.195 346.662 903.117 346.54 901.568 346.111 C 900.758 345.886 900.603 345.584 900.361 345.089 C 900.073 344.501 900.064 343.487 900.175 342.674 C 900.292 341.816 901.44 340.911 901.104 340.073 C 900.648 338.937 898.141 337.525 896.181 336.822 C 893.982 336.033 890.899 336.456 888.378 335.893 C 885.885 335.336 883.251 334.472 881.133 333.478 C 879.218 332.579 877.694 331.553 876.116 330.319 C 874.5 329.054 873.157 328.15 871.565 325.954 C 869.247 322.756 865.354 315.365 864.134 311.649 C 863.303 309.117 863.11 306.707 863.391 305.518 C 863.553 304.828 863.906 304.554 864.412 304.31 C 865.031 304.012 865.845 304.097 867.013 304.124 C 868.792 304.166 872.136 303.832 874.444 304.868 C 876.969 306 880.108 309.795 881.411 311.091 C 882.092 311.768 882.069 311.916 882.619 312.485 C 883.403 313.295 885.394 315.091 885.87 315.55 C 886.05 315.724 885.868 315.645 886.149 315.829 C 887.431 316.666 899.538 324.897 901.754 324.003 C 903.3 323.379 902.218 318.671 902.033 316.85 C 901.899 315.534 902.029 314.36 901.197 313.785 C 900.128 313.047 896.863 314.085 895.252 313.785 C 893.961 313.544 893.129 313.14 892.094 312.485 C 890.926 311.745 889.889 310.807 888.657 309.419 C 887.041 307.601 884.423 303.266 883.362 302.081 C 882.87 301.532 882.775 301.746 882.34 301.245 C 881.542 300.324 879.545 298.025 878.996 296.229 C 878.464 294.488 878.645 291.77 878.996 290.655 C 879.208 289.982 879.577 289.681 880.018 289.448 C 880.47 289.208 881.046 289.071 881.69 289.262 C 882.6 289.532 884.475 290.93 884.941 291.584 C 885.213 291.966 884.93 292.292 885.127 292.606 C 885.364 292.985 885.878 293.079 886.427 293.628 C 887.326 294.526 888.652 296.642 890.05 297.994 C 891.513 299.408 893.206 300.849 895.066 301.895 C 896.973 302.967 900.419 304.858 901.383 304.31 C 902.163 303.867 901.661 301.444 901.475 300.316 C 901.319 299.368 900.557 298.79 900.547 297.901 C 900.535 296.894 901.682 295.399 901.661 294.557 C 901.646 293.952 901.565 293.727 901.011 293.163 C 899.906 292.04 894.471 289.201 893.673 288.612 C 893.44 288.44 893.533 288.493 893.394 288.333 C 893.115 288.013 892.388 287.362 892.001 286.568 C 891.501 285.546 890.734 283.386 890.886 282.481 C 890.988 281.871 891.467 281.507 891.908 281.274 C 892.36 281.034 892.94 280.921 893.58 281.088 C 894.45 281.315 895.854 282.279 896.645 283.038 C 897.359 283.724 897.383 284.673 898.224 285.361 C 899.31 286.248 901.982 287.773 903.055 287.59 C 903.832 287.457 903.878 286.077 904.541 285.732 C 905.228 285.375 906.214 285.29 907.142 285.546 C 908.288 285.864 909.222 288.151 910.857 287.962 C 913.381 287.669 918.972 280.509 921.261 279.973 Z" style="fill: rgb(166, 209, 48); stroke: rgb(129, 151, 57); stroke-width: 2px;"/>
  <path d="M -70.785 -22.23 C -70.785 -19.567 -77.456 -17.409 -85.685 -17.409 C -92.011 -17.409 -97.417 -18.684 -99.578 -20.484 C -99.722 -15.68 -99.92 -9.658 -99.694 -6.843 C -99.48 -4.179 -98.408 -2.332 -98.582 -1.283 C -98.677 -0.707 -98.967 -0.492 -99.36 -0.282 C -99.834 -0.029 -100.84 0.077 -101.362 -0.06 C -101.796 -0.174 -102.053 -0.355 -102.363 -0.838 C -102.873 -1.636 -103.404 -2.785 -103.697 -5.064 C -103.942 -6.97 -104.103 -10.962 -104.152 -15.12 C -106.413 -13.695 -110.592 -12.739 -115.375 -12.739 C -122.56 -12.739 -128.385 -14.897 -128.385 -17.56 C -128.385 -20.223 -122.56 -22.381 -115.375 -22.381 C -110.594 -22.381 -106.416 -21.426 -104.155 -20.002 C -104.113 -23.639 -103.968 -26.782 -103.697 -27.97 C -103.451 -29.046 -102.975 -29.158 -102.696 -29.416 C -102.528 -29.572 -102.497 -29.634 -102.251 -29.638 C -101.771 -29.647 -100.146 -29.397 -99.694 -28.86 C -99.273 -28.36 -99.515 -27.971 -99.471 -26.636 C -99.452 -26.046 -99.46 -25.151 -99.482 -24.054 C -97.26 -25.812 -91.92 -27.051 -85.685 -27.051 C -77.456 -27.051 -70.785 -24.893 -70.785 -22.23 Z" style="fill: rgb(166, 209, 48); stroke: rgb(129, 151, 57); stroke-width: 2px;"/>
  <path fill="rgb(255,0,0)" stroke="rgb(255,0,0)" stroke-width="0" d="M 1.346 -49.32 C 0.744 -45.917 0.799 -39.819 0.984 -33.711 C 1.765 -33.773 3.017 -33.827 4.231 -33.835 C 4.302 -33.973 4.395 -34.097 4.512 -34.205 C 5.03 -34.682 5.952 -34.788 7.138 -34.576 C 8.321 -36.103 9.929 -37.737 11.838 -39.28 C 16.852 -43.335 22.044 -45.228 23.434 -43.509 C 24.823 -41.79 21.885 -37.111 16.87 -33.056 C 16.051 -32.394 15.228 -31.79 14.417 -31.249 C 15.217 -30.721 16.025 -30.139 16.825 -29.511 C 22.015 -25.437 24.917 -20.933 23.307 -19.45 C 21.697 -17.968 16.184 -20.07 10.994 -24.144 C 9.277 -25.492 7.811 -26.887 6.675 -28.204 C 6.056 -28.251 5.576 -28.454 5.274 -28.827 C 5.126 -29.01 5.027 -29.226 4.975 -29.472 C 3.612 -29.408 2.11 -29.424 1.127 -29.518 C 1.208 -27.318 1.289 -25.2 1.346 -23.3 C 1.575 -15.584 3.189 -3.85 2.68 -1.283 C 2.518 -0.464 2.295 -0.492 1.902 -0.282 C 1.428 -0.029 0.422 0.077 -0.1 -0.06 C -0.534 -0.173 -0.808 -0.085 -1.101 -0.838 C -1.718 -2.424 -2.091 -8.042 -2.353 -13.901 C -2.373 -13.9 -2.394 -13.899 -2.414 -13.898 C -3.322 -12.421 -4.782 -10.688 -6.631 -8.986 C -10.649 -5.287 -14.985 -3.134 -16.314 -4.178 C -17.644 -5.221 -15.463 -9.066 -11.444 -12.765 C -10.798 -13.36 -10.143 -13.915 -9.495 -14.423 C -9.606 -14.538 -9.682 -14.677 -9.774 -14.849 C -9.82 -14.935 -9.861 -15.039 -9.897 -15.155 C -12.183 -15.977 -14.983 -17.567 -17.695 -19.696 C -22.884 -23.771 -25.786 -28.275 -24.176 -29.757 C -22.566 -31.239 -17.054 -29.138 -11.864 -25.063 C -8.878 -22.719 -6.649 -20.233 -5.602 -18.262 C -4.599 -18.29 -3.507 -18.301 -2.531 -18.284 C -2.576 -19.479 -2.618 -20.643 -2.657 -21.743 C -2.84 -26.84 -3.222 -33.807 -3.275 -39.962 C -5.355 -39.816 -8.099 -39.861 -8.996 -40.09 C -9.634 -40.254 -9.786 -40.475 -9.996 -40.869 C -10.042 -40.954 -10.082 -41.057 -10.118 -41.17 C -11.886 -41.55 -14.021 -42.458 -16.082 -43.797 C -20.119 -46.419 -22.344 -49.699 -21.052 -51.122 C -19.759 -52.545 -15.439 -51.574 -11.401 -48.951 C -9.082 -47.445 -7.361 -45.721 -6.561 -44.258 C -5.489 -44.295 -4.261 -44.309 -3.247 -44.275 C -3.179 -46.999 -3.003 -49.377 -2.657 -51.099 C -1.95 -54.624 0.075 -57.235 0.746 -58.051 C -1.815 -57.738 -5.333 -58.685 -8.495 -60.738 C -13.133 -63.75 -15.248 -68.003 -13.219 -70.237 C -11.191 -72.471 -5.787 -71.84 -1.149 -68.828 C 2.34 -66.562 4.402 -63.594 4.345 -61.311 C 6.438 -61.701 9.314 -61.581 12.306 -60.87 C 17.665 -59.595 21.369 -56.902 20.579 -54.856 C 19.788 -52.809 14.804 -52.184 9.445 -53.459 C 7.311 -53.966 5.44 -54.699 4.01 -55.525 C 3.732 -54.069 1.904 -52.481 1.346 -49.32" style="fill: rgb(166, 209, 48); stroke: rgb(129, 151, 57); stroke-width: 2px;"/>
  <g transform="matrix(1, 0, 0, 1, -102.557961, -123.493286)">
    <path fill="rgb(255,0,0)" stroke="rgb(255,0,0)" stroke-width="0" d="M 216.489 30.218 C 221.831 32.057 225.432 35.666 224.533 38.28 C 223.633 40.893 218.573 41.52 213.231 39.68 C 209.996 38.566 207.398 36.803 206.053 35.005 C 205.854 35.32 205.425 35.352 205.244 36.144 C 204.704 38.504 205.197 45.845 205.244 52.601 C 205.283 58.061 205.426 65.264 205.54 72.55 C 208.21 70.589 211.997 67.959 214.694 66.475 C 214.883 63.833 217.281 60.333 221.05 57.594 C 226.074 53.945 231.631 53.029 233.462 55.55 C 235.294 58.071 232.706 63.073 227.683 66.723 C 225.876 68.036 224 68.995 222.252 69.568 C 223.922 70.08 225.687 70.846 227.435 71.855 C 233.623 75.428 237.265 80.704 235.571 83.639 C 233.876 86.574 227.486 86.057 221.298 82.485 C 216.949 79.974 213.858 76.623 212.992 73.833 C 210.731 75.325 208.461 76.738 207.135 77.398 C 206.599 77.665 206.091 77.898 205.619 78.091 C 205.655 80.95 205.681 83.756 205.689 86.405 C 205.723 97.147 204.82 112.566 205.467 117.984 C 205.762 120.454 206.9 121.336 206.801 122.21 C 206.741 122.74 206.416 123.001 206.023 123.211 C 205.549 123.464 204.543 123.57 204.021 123.433 C 203.587 123.319 203.363 123.076 203.02 122.655 C 202.52 122.038 201.837 121.716 201.464 119.764 C 200.89 116.76 200.99 108.785 201.171 100.579 C 201.016 100.565 200.854 100.547 200.685 100.527 C 199.198 100.346 196.043 99.76 192.933 99.034 C 193.182 99.448 193.336 99.889 193.385 100.354 C 193.738 103.713 188.43 107.024 181.528 107.75 C 174.627 108.475 168.746 106.34 168.393 102.981 C 168.04 99.621 173.348 96.31 180.25 95.585 C 180.488 95.56 180.725 95.538 180.96 95.52 C 180.342 95.229 179.724 94.906 179.109 94.551 C 172.62 90.805 169.003 84.922 171.03 81.412 C 173.057 77.902 179.959 78.093 186.448 81.839 C 192.414 85.285 195.952 90.535 194.908 94.087 C 195.733 94.224 196.494 94.371 197.127 94.522 C 198.456 94.839 199.959 95.235 201.284 95.676 C 201.372 91.9 201.452 88.28 201.464 85.293 C 201.503 75.583 201.73 66.853 201.686 58.161 C 201.678 56.658 201.633 55.03 201.567 53.351 C 201.262 53.355 200.902 53.302 200.463 53.157 C 199.301 52.771 196.788 51.355 194.053 49.637 C 192.898 51.811 190.33 54.082 186.955 55.656 C 181.5 58.199 176.006 57.96 174.682 55.121 C 173.358 52.283 176.707 47.92 182.161 45.376 C 183.445 44.777 184.732 44.333 185.966 44.04 C 184.974 43.255 184.234 42.593 183.895 42.148 C 183.831 42.065 183.777 41.984 183.729 41.907 C 181.119 42.679 177.571 42.427 174.038 41 C 168.059 38.584 164.387 33.718 165.837 30.13 C 167.286 26.543 173.308 25.592 179.287 28.008 C 185.266 30.424 188.938 35.29 187.488 38.878 C 187.44 38.996 187.387 39.112 187.33 39.224 C 189.066 39.902 192 41.77 194.458 43.371 C 196.378 44.622 199.284 46.425 201.32 47.963 C 201.029 42.107 200.746 36.57 201.241 34.364 C 201.356 33.853 201.526 33.481 201.714 33.199 C 199.927 33.264 197.923 33.003 195.881 32.379 C 190.048 30.596 186.124 26.517 187.117 23.269 C 188.11 20.021 193.644 18.833 199.477 20.617 C 205.112 22.339 208.965 26.203 208.327 29.392 C 210.472 28.92 213.434 29.166 216.489 30.218 Z" style="fill: rgb(166, 209, 48); stroke: rgb(129, 151, 57); stroke-width: 2px;"/>
    <g transform="matrix(1, 0, 0, 1, 61.243328, -113.202789)">
      <path d="M 131.768 202.668 L 132.531 205.479 L 135.204 204.323 L 133.482 206.672 L 136.053 208.041 L 133.142 208.159 L 133.675 211.023 L 131.768 208.821 L 129.861 211.023 L 130.394 208.159 L 127.483 208.041 L 130.054 206.672 L 128.332 204.323 L 131.005 205.479 Z" style="stroke: rgb(0, 0, 0); fill: rgb(224, 231, 11); stroke-width: 0px;" bx:shape="star 131.768 207.063 4.395 4.395 0.4 7 1@7efa6a98"/>
      <ellipse style="stroke: rgb(157, 71, 0); fill: rgb(157, 71, 0);" cx="131.857" cy="206.942" rx="0.755" ry="0.755"/>
    </g>
    <g transform="matrix(1, 0, 0, 1, 82.696609, -140.555725)">
      <path d="M 131.768 202.668 L 132.531 205.479 L 135.204 204.323 L 133.482 206.672 L 136.053 208.041 L 133.142 208.159 L 133.675 211.023 L 131.768 208.821 L 129.861 211.023 L 130.394 208.159 L 127.483 208.041 L 130.054 206.672 L 128.332 204.323 L 131.005 205.479 Z" style="stroke: rgb(0, 0, 0); fill: rgb(224, 231, 11); stroke-width: 0px;" bx:shape="star 131.768 207.063 4.395 4.395 0.4 7 1@7efa6a98"/>
      <ellipse style="stroke: rgb(157, 71, 0); fill: rgb(157, 71, 0);" cx="131.857" cy="206.942" rx="0.755" ry="0.755"/>
    </g>
    <g transform="matrix(1, 0, 0, 1, 85.512352, -131.974411)">
      <path d="M 131.768 202.668 L 132.531 205.479 L 135.204 204.323 L 133.482 206.672 L 136.053 208.041 L 133.142 208.159 L 133.675 211.023 L 131.768 208.821 L 129.861 211.023 L 130.394 208.159 L 127.483 208.041 L 130.054 206.672 L 128.332 204.323 L 131.005 205.479 Z" style="stroke: rgb(0, 0, 0); fill: rgb(224, 231, 11); stroke-width: 0px;" bx:shape="star 131.768 207.063 4.395 4.395 0.4 7 1@7efa6a98"/>
      <ellipse style="stroke: rgb(157, 71, 0); fill: rgb(157, 71, 0);" cx="131.857" cy="206.942" rx="0.755" ry="0.755"/>
    </g>
    <g transform="matrix(1, 0, 0, 1, 63.924988, -159.193268)">
      <path d="M 131.768 202.668 L 132.531 205.479 L 135.204 204.323 L 133.482 206.672 L 136.053 208.041 L 133.142 208.159 L 133.675 211.023 L 131.768 208.821 L 129.861 211.023 L 130.394 208.159 L 127.483 208.041 L 130.054 206.672 L 128.332 204.323 L 131.005 205.479 Z" style="stroke: rgb(0, 0, 0); fill: rgb(224, 231, 11); stroke-width: 0px;" bx:shape="star 131.768 207.063 4.395 4.395 0.4 7 1@7efa6a98"/>
      <ellipse style="stroke: rgb(157, 71, 0); fill: rgb(157, 71, 0);" cx="131.857" cy="206.942" rx="0.755" ry="0.755"/>
    </g>
    <g transform="matrix(1, 0, 0, 1, 53.73468, -166.567841)">
      <path d="M 131.768 202.668 L 132.531 205.479 L 135.204 204.323 L 133.482 206.672 L 136.053 208.041 L 133.142 208.159 L 133.675 211.023 L 131.768 208.821 L 129.861 211.023 L 130.394 208.159 L 127.483 208.041 L 130.054 206.672 L 128.332 204.323 L 131.005 205.479 Z" style="stroke: rgb(0, 0, 0); fill: rgb(224, 231, 11); stroke-width: 0px;" bx:shape="star 131.768 207.063 4.395 4.395 0.4 7 1@7efa6a98"/>
      <ellipse style="stroke: rgb(157, 71, 0); fill: rgb(157, 71, 0);" cx="131.857" cy="206.942" rx="0.755" ry="0.755"/>
    </g>
    <g transform="matrix(1, 0, 0, 1, 74.517548, -174.478745)">
      <path d="M 131.768 202.668 L 132.531 205.479 L 135.204 204.323 L 133.482 206.672 L 136.053 208.041 L 133.142 208.159 L 133.675 211.023 L 131.768 208.821 L 129.861 211.023 L 130.394 208.159 L 127.483 208.041 L 130.054 206.672 L 128.332 204.323 L 131.005 205.479 Z" style="stroke: rgb(0, 0, 0); fill: rgb(224, 231, 11); stroke-width: 0px;" bx:shape="star 131.768 207.063 4.395 4.395 0.4 7 1@7efa6a98"/>
      <ellipse style="stroke: rgb(157, 71, 0); fill: rgb(157, 71, 0);" cx="131.857" cy="206.942" rx="0.755" ry="0.755"/>
    </g>
    <g transform="matrix(1, 0, 0, 1, 50.516689, -109.688995)">
      <path d="M 131.768 202.668 L 132.531 205.479 L 135.204 204.323 L 133.482 206.672 L 136.053 208.041 L 133.142 208.159 L 133.675 211.023 L 131.768 208.821 L 129.861 211.023 L 130.394 208.159 L 127.483 208.041 L 130.054 206.672 L 128.332 204.323 L 131.005 205.479 Z" style="stroke: rgb(0, 0, 0); fill: rgb(224, 231, 11); stroke-width: 0px;" bx:shape="star 131.768 207.063 4.395 4.395 0.4 7 1@7efa6a98"/>
      <ellipse style="stroke: rgb(157, 71, 0); fill: rgb(157, 71, 0);" cx="131.857" cy="206.942" rx="0.755" ry="0.755"/>
    </g>
  </g>
  <g transform="matrix(1.035438, -0.000063, 0.000063, 1.025061, -70.35807, -104.2071)">
    <path fill="rgb(255,0,0)" stroke="rgb(255,0,0)" stroke-width="0" d="M 277.045 8.059 C 282.387 9.898 285.988 13.507 285.089 16.121 C 284.189 18.734 279.129 19.361 273.787 17.521 C 270.552 16.407 267.954 14.644 266.609 12.846 C 266.41 13.161 265.981 13.193 265.8 13.985 C 265.26 16.345 265.753 23.686 265.8 30.442 C 265.839 35.902 265.982 43.105 266.096 50.391 C 268.766 48.43 272.553 45.8 275.25 44.316 C 275.439 41.674 277.837 38.174 281.606 35.435 C 286.63 31.786 292.187 30.87 294.018 33.391 C 295.85 35.912 293.262 40.914 288.239 44.564 C 286.432 45.877 284.556 46.836 282.808 47.409 C 284.478 47.921 286.243 48.687 287.991 49.696 C 294.179 53.269 297.821 58.545 296.127 61.48 C 294.432 64.415 288.042 63.898 281.854 60.326 C 277.505 57.815 274.414 54.464 273.548 51.674 C 271.287 53.166 269.017 54.579 267.691 55.239 C 267.155 55.506 266.647 55.739 266.175 55.932 C 266.211 58.791 266.237 61.597 266.245 64.246 C 266.279 74.988 265.376 90.407 266.023 95.825 C 266.318 98.295 267.456 99.177 267.357 100.051 C 267.297 100.581 266.972 100.842 266.579 101.052 C 266.105 101.305 265.099 101.411 264.577 101.274 C 264.143 101.16 263.919 100.917 263.576 100.496 C 263.076 99.879 262.393 99.557 262.02 97.605 C 261.446 94.601 261.546 86.626 261.727 78.42 C 261.572 78.406 261.41 78.388 261.241 78.368 C 259.754 78.187 256.599 77.601 253.489 76.875 C 253.738 77.289 253.892 77.73 253.941 78.195 C 254.294 81.554 248.986 84.865 242.084 85.591 C 235.183 86.316 229.302 84.181 228.949 80.822 C 228.596 77.462 233.904 74.151 240.806 73.426 C 241.044 73.401 241.281 73.379 241.516 73.361 C 240.898 73.07 240.28 72.747 239.665 72.392 C 233.176 68.646 229.559 62.763 231.586 59.253 C 233.613 55.743 240.515 55.934 247.004 59.68 C 252.97 63.126 256.508 68.376 255.464 71.928 C 256.289 72.065 257.05 72.212 257.683 72.363 C 259.012 72.68 260.515 73.076 261.84 73.517 C 261.928 69.741 262.008 66.121 262.02 63.134 C 262.059 53.424 262.286 44.694 262.242 36.002 C 262.234 34.499 262.189 32.871 262.123 31.192 C 261.818 31.196 261.458 31.143 261.019 30.998 C 259.857 30.612 257.344 29.196 254.609 27.478 C 253.454 29.652 250.886 31.923 247.511 33.497 C 242.056 36.04 236.562 35.801 235.238 32.962 C 233.914 30.124 237.263 25.761 242.717 23.217 C 244.001 22.618 245.288 22.174 246.522 21.881 C 245.53 21.096 244.79 20.434 244.451 19.989 C 244.387 19.906 244.333 19.825 244.285 19.748 C 241.675 20.52 238.127 20.268 234.594 18.841 C 228.615 16.425 224.943 11.559 226.393 7.971 C 227.842 4.384 233.864 3.433 239.843 5.849 C 245.822 8.265 249.494 13.131 248.044 16.719 C 247.996 16.837 247.943 16.953 247.886 17.065 C 249.622 17.743 252.556 19.611 255.014 21.212 C 256.934 22.463 259.84 24.266 261.876 25.804 C 261.585 19.948 261.302 14.411 261.797 12.205 C 261.912 11.694 262.082 11.322 262.27 11.04 C 260.483 11.105 258.479 10.844 256.437 10.22 C 250.604 8.437 246.68 4.358 247.673 1.11 C 248.666 -2.138 254.2 -3.326 260.033 -1.542 C 265.668 0.18 269.521 4.044 268.883 7.233 C 271.028 6.761 273.99 7.007 277.045 8.059 Z" style="fill: rgb(166, 209, 48); stroke: rgb(129, 151, 57); stroke-width: 2px;" transform="matrix(0.999953, -0.009691, 0.009691, 0.999953, -0.467253, 2.534674)"/>
    <g transform="matrix(0.999953, -0.009691, 0.009691, 0.999953, 120.014465, -134.001099)">
      <path d="M 131.768 202.668 L 132.531 205.479 L 135.204 204.323 L 133.482 206.672 L 136.053 208.041 L 133.142 208.159 L 133.675 211.023 L 131.768 208.821 L 129.861 211.023 L 130.394 208.159 L 127.483 208.041 L 130.054 206.672 L 128.332 204.323 L 131.005 205.479 Z" style="stroke: rgb(0, 0, 0); fill: rgb(224, 231, 11); stroke-width: 0px;" bx:shape="star 131.768 207.063 4.395 4.395 0.4 7 1@7efa6a98"/>
      <ellipse style="stroke: rgb(157, 71, 0); fill: rgb(157, 71, 0);" cx="131.857" cy="206.942" rx="0.755" ry="0.755"/>
    </g>
    <g transform="matrix(0.999953, -0.009691, 0.009691, 0.999953, 141.20166, -161.560669)">
      <path d="M 131.768 202.668 L 132.531 205.479 L 135.204 204.323 L 133.482 206.672 L 136.053 208.041 L 133.142 208.159 L 133.675 211.023 L 131.768 208.821 L 129.861 211.023 L 130.394 208.159 L 127.483 208.041 L 130.054 206.672 L 128.332 204.323 L 131.005 205.479 Z" style="stroke: rgb(0, 0, 0); fill: rgb(224, 231, 11); stroke-width: 0px;" bx:shape="star 131.768 207.063 4.395 4.395 0.4 7 1@7efa6a98"/>
      <ellipse style="stroke: rgb(157, 71, 0); fill: rgb(157, 71, 0);" cx="131.857" cy="206.942" rx="0.755" ry="0.755"/>
    </g>
    <g transform="matrix(0.999953, -0.009691, 0.009691, 0.999953, 144.100433, -153.00705)">
      <path d="M 131.768 202.668 L 132.531 205.479 L 135.204 204.323 L 133.482 206.672 L 136.053 208.041 L 133.142 208.159 L 133.675 211.023 L 131.768 208.821 L 129.861 211.023 L 130.394 208.159 L 127.483 208.041 L 130.054 206.672 L 128.332 204.323 L 131.005 205.479 Z" style="stroke: rgb(0, 0, 0); fill: rgb(224, 231, 11); stroke-width: 0px;" bx:shape="star 131.768 207.063 4.395 4.395 0.4 7 1@7efa6a98"/>
      <ellipse style="stroke: rgb(157, 71, 0); fill: rgb(157, 71, 0);" cx="131.857" cy="206.942" rx="0.755" ry="0.755"/>
    </g>
    <g transform="matrix(0.999953, -0.009691, 0.009691, 0.999953, 122.250275, -180.015411)">
      <path d="M 131.768 202.668 L 132.531 205.479 L 135.204 204.323 L 133.482 206.672 L 136.053 208.041 L 133.142 208.159 L 133.675 211.023 L 131.768 208.821 L 129.861 211.023 L 130.394 208.159 L 127.483 208.041 L 130.054 206.672 L 128.332 204.323 L 131.005 205.479 Z" style="stroke: rgb(0, 0, 0); fill: rgb(224, 231, 11); stroke-width: 0px;" bx:shape="star 131.768 207.063 4.395 4.395 0.4 7 1@7efa6a98"/>
      <ellipse style="stroke: rgb(157, 71, 0); fill: rgb(157, 71, 0);" cx="131.857" cy="206.942" rx="0.755" ry="0.755"/>
    </g>
    <g transform="matrix(0.999953, -0.009691, 0.009691, 0.999953, 111.988976, -187.290863)">
      <path d="M 131.768 202.668 L 132.531 205.479 L 135.204 204.323 L 133.482 206.672 L 136.053 208.041 L 133.142 208.159 L 133.675 211.023 L 131.768 208.821 L 129.861 211.023 L 130.394 208.159 L 127.483 208.041 L 130.054 206.672 L 128.332 204.323 L 131.005 205.479 Z" style="stroke: rgb(0, 0, 0); fill: rgb(224, 231, 11); stroke-width: 0px;" bx:shape="star 131.768 207.063 4.395 4.395 0.4 7 1@7efa6a98"/>
      <ellipse style="stroke: rgb(157, 71, 0); fill: rgb(157, 71, 0);" cx="131.857" cy="206.942" rx="0.755" ry="0.755"/>
    </g>
    <g transform="matrix(0.999953, -0.009691, 0.009691, 0.999953, 132.694199, -195.402817)">
      <path d="M 131.768 202.668 L 132.531 205.479 L 135.204 204.323 L 133.482 206.672 L 136.053 208.041 L 133.142 208.159 L 133.675 211.023 L 131.768 208.821 L 129.861 211.023 L 130.394 208.159 L 127.483 208.041 L 130.054 206.672 L 128.332 204.323 L 131.005 205.479 Z" style="stroke: rgb(0, 0, 0); fill: rgb(224, 231, 11); stroke-width: 0px;" bx:shape="star 131.768 207.063 4.395 4.395 0.4 7 1@7efa6a98"/>
      <ellipse style="stroke: rgb(157, 71, 0); fill: rgb(157, 71, 0);" cx="131.857" cy="206.942" rx="0.755" ry="0.755"/>
    </g>
    <g transform="matrix(0.999953, -0.009691, 0.009691, 0.999953, 109.322388, -130.383514)">
      <path d="M 131.768 202.668 L 132.531 205.479 L 135.204 204.323 L 133.482 206.672 L 136.053 208.041 L 133.142 208.159 L 133.675 211.023 L 131.768 208.821 L 129.861 211.023 L 130.394 208.159 L 127.483 208.041 L 130.054 206.672 L 128.332 204.323 L 131.005 205.479 Z" style="stroke: rgb(0, 0, 0); fill: rgb(224, 231, 11); stroke-width: 0px;" bx:shape="star 131.768 207.063 4.395 4.395 0.4 7 1@7efa6a98"/>
      <ellipse style="stroke: rgb(157, 71, 0); fill: rgb(157, 71, 0);" cx="131.857" cy="206.942" rx="0.755" ry="0.755"/>
    </g>
    <ellipse style="stroke: rgb(0, 0, 0); fill: rgb(146, 216, 15);" cx="267.09" cy="9.976" rx="6.878" ry="5.134" transform="matrix(0.999953, -0.009691, 0.009691, 0.999953, -0.467204, 2.534847)"/>
    <ellipse style="stroke: rgb(0, 0, 0); fill: rgb(146, 216, 15);" cx="258.879" cy="25.029" rx="6.878" ry="5.134" transform="matrix(0.999953, -0.009691, 0.009691, 0.999953, -0.467207, 2.53485)"/>
    <ellipse style="stroke: rgb(0, 0, 0); fill: rgb(146, 216, 15);" cx="243.552" cy="18.187" rx="6.878" ry="5.134" transform="matrix(0.999953, -0.009691, 0.009691, 0.999953, -0.467211, 2.534848)"/>
    <ellipse style="stroke: rgb(0, 0, 0); fill: rgb(146, 216, 15);" cx="256.69" cy="71.558" rx="6.878" ry="5.134" transform="matrix(0.999953, -0.009691, 0.009691, 0.999953, -0.467207, 2.534864)"/>
    <ellipse style="stroke: rgb(0, 0, 0); fill: rgb(146, 216, 15);" cx="279.916" cy="54.589" rx="6.878" ry="5.134" transform="matrix(0.999953, -0.009691, 0.009691, 0.999953, -0.4672, 2.534859)"/>
    <ellipse style="stroke: rgb(0, 0, 0); fill: rgb(146, 216, 15);" cx="274.989" cy="42.82" rx="6.878" ry="5.134" transform="matrix(0.999953, -0.009691, 0.009691, 0.999953, -0.467202, 2.534855)"/>
    <ellipse style="stroke: rgb(0, 0, 0); fill: rgb(146, 216, 15);" cx="241.324" cy="74.022" rx="6.878" ry="5.134" transform="matrix(0.999953, -0.009691, 0.009691, 0.999953, -0.467212, 2.534865)"/>
  </g>
  <g transform="matrix(1.035967, 0, 0, 1.092479, -130.264664, -138.501526)" style="">
    <path fill="rgb(255,0,0)" stroke="rgb(255,0,0)" stroke-width="0" d="M 432.438 33.502 C 437.78 35.341 441.381 38.95 440.482 41.564 C 439.582 44.177 434.522 44.804 429.18 42.964 C 425.945 41.85 423.347 40.087 422.002 38.289 C 421.803 38.604 421.374 38.636 421.193 39.428 C 420.653 41.788 421.146 49.129 421.193 55.885 C 421.232 61.345 421.375 68.548 421.489 75.834 C 424.159 73.873 427.946 71.243 430.643 69.759 C 430.832 67.117 433.23 63.617 436.999 60.878 C 442.023 57.229 447.58 56.313 449.411 58.834 C 451.243 61.355 448.655 66.357 443.632 70.007 C 441.825 71.32 439.949 72.279 438.201 72.852 C 439.871 73.364 441.636 74.13 443.384 75.139 C 449.572 78.712 453.214 83.988 451.52 86.923 C 449.825 89.858 443.435 89.341 437.247 85.769 C 432.898 83.258 429.807 79.907 428.941 77.117 C 426.68 78.609 424.41 80.022 423.084 80.682 C 422.548 80.949 422.04 81.182 421.568 81.375 C 421.604 84.234 421.63 87.04 421.638 89.689 C 421.672 100.431 420.769 115.85 421.416 121.268 C 421.711 123.738 422.849 124.62 422.75 125.494 C 422.69 126.024 422.365 126.285 421.972 126.495 C 421.498 126.748 420.492 126.854 419.97 126.717 C 419.536 126.603 419.312 126.36 418.969 125.939 C 418.469 125.322 417.786 125 417.413 123.048 C 416.839 120.044 416.939 112.069 417.12 103.863 C 416.965 103.849 416.803 103.831 416.634 103.811 C 415.147 103.63 411.992 103.044 408.882 102.318 C 409.131 102.732 409.285 103.173 409.334 103.638 C 409.687 106.997 404.379 110.308 397.477 111.034 C 390.576 111.759 384.695 109.624 384.342 106.265 C 383.989 102.905 389.297 99.594 396.199 98.869 C 396.437 98.844 396.674 98.822 396.909 98.804 C 396.291 98.513 395.673 98.19 395.058 97.835 C 388.569 94.089 384.952 88.206 386.979 84.696 C 389.006 81.186 395.908 81.377 402.397 85.123 C 408.363 88.569 411.901 93.819 410.857 97.371 C 411.682 97.508 412.443 97.655 413.076 97.806 C 414.405 98.123 415.908 98.519 417.233 98.96 C 417.321 95.184 417.401 91.564 417.413 88.577 C 417.452 78.867 417.679 70.137 417.635 61.445 C 417.627 59.942 417.582 58.314 417.516 56.635 C 417.211 56.639 416.851 56.586 416.412 56.441 C 415.25 56.055 412.737 54.639 410.002 52.921 C 408.847 55.095 406.279 57.366 402.904 58.94 C 397.449 61.483 391.955 61.244 390.631 58.405 C 389.307 55.567 392.656 51.204 398.11 48.66 C 399.394 48.061 400.681 47.617 401.915 47.324 C 400.923 46.539 400.183 45.877 399.844 45.432 C 399.78 45.349 399.726 45.268 399.678 45.191 C 397.068 45.963 393.52 45.711 389.987 44.284 C 384.008 41.868 380.336 37.002 381.786 33.414 C 383.235 29.827 389.257 28.876 395.236 31.292 C 401.215 33.708 404.887 38.574 403.437 42.162 C 403.389 42.28 403.336 42.396 403.279 42.508 C 405.015 43.186 407.949 45.054 410.407 46.655 C 412.327 47.906 415.233 49.709 417.269 51.247 C 416.978 45.391 416.695 39.854 417.19 37.648 C 417.305 37.137 417.475 36.765 417.663 36.483 C 415.876 36.548 413.872 36.287 411.83 35.663 C 405.997 33.88 402.073 29.801 403.066 26.553 C 404.059 23.305 409.593 22.117 415.426 23.901 C 421.061 25.623 424.914 29.487 424.276 32.676 C 426.421 32.204 429.383 32.45 432.438 33.502 Z" style="fill: rgb(166, 209, 48); stroke: rgb(129, 151, 57); stroke-width: 2px;"/>
    <g transform="matrix(1, 0, 0, 1, 277.19223, -109.918396)">
      <path d="M 131.768 202.668 L 132.531 205.479 L 135.204 204.323 L 133.482 206.672 L 136.053 208.041 L 133.142 208.159 L 133.675 211.023 L 131.768 208.821 L 129.861 211.023 L 130.394 208.159 L 127.483 208.041 L 130.054 206.672 L 128.332 204.323 L 131.005 205.479 Z" style="stroke: rgb(0, 0, 0); fill: rgb(224, 231, 11); stroke-width: 0px;" bx:shape="star 131.768 207.063 4.395 4.395 0.4 7 1@7efa6a98"/>
      <ellipse style="stroke: rgb(157, 71, 0); fill: rgb(157, 71, 0);" cx="131.857" cy="206.942" rx="0.755" ry="0.755"/>
    </g>
    <g transform="matrix(1, 0, 0, 1, 298.645508, -137.271332)">
      <path d="M 131.768 202.668 L 132.531 205.479 L 135.204 204.323 L 133.482 206.672 L 136.053 208.041 L 133.142 208.159 L 133.675 211.023 L 131.768 208.821 L 129.861 211.023 L 130.394 208.159 L 127.483 208.041 L 130.054 206.672 L 128.332 204.323 L 131.005 205.479 Z" style="stroke: rgb(0, 0, 0); fill: rgb(224, 231, 11); stroke-width: 0px;" bx:shape="star 131.768 207.063 4.395 4.395 0.4 7 1@7efa6a98"/>
      <ellipse style="stroke: rgb(157, 71, 0); fill: rgb(157, 71, 0);" cx="131.857" cy="206.942" rx="0.755" ry="0.755"/>
    </g>
    <g transform="matrix(1, 0, 0, 1, 301.461243, -128.690018)">
      <path d="M 131.768 202.668 L 132.531 205.479 L 135.204 204.323 L 133.482 206.672 L 136.053 208.041 L 133.142 208.159 L 133.675 211.023 L 131.768 208.821 L 129.861 211.023 L 130.394 208.159 L 127.483 208.041 L 130.054 206.672 L 128.332 204.323 L 131.005 205.479 Z" style="stroke: rgb(0, 0, 0); fill: rgb(224, 231, 11); stroke-width: 0px;" bx:shape="star 131.768 207.063 4.395 4.395 0.4 7 1@7efa6a98"/>
      <ellipse style="stroke: rgb(157, 71, 0); fill: rgb(157, 71, 0);" cx="131.857" cy="206.942" rx="0.755" ry="0.755"/>
    </g>
    <g transform="matrix(1, 0, 0, 1, 279.873871, -155.908875)">
      <path d="M 131.768 202.668 L 132.531 205.479 L 135.204 204.323 L 133.482 206.672 L 136.053 208.041 L 133.142 208.159 L 133.675 211.023 L 131.768 208.821 L 129.861 211.023 L 130.394 208.159 L 127.483 208.041 L 130.054 206.672 L 128.332 204.323 L 131.005 205.479 Z" style="stroke: rgb(0, 0, 0); fill: rgb(224, 231, 11); stroke-width: 0px;" bx:shape="star 131.768 207.063 4.395 4.395 0.4 7 1@7efa6a98"/>
      <ellipse style="stroke: rgb(157, 71, 0); fill: rgb(157, 71, 0);" cx="131.857" cy="206.942" rx="0.755" ry="0.755"/>
    </g>
    <g transform="matrix(1, 0, 0, 1, 269.683563, -163.283447)">
      <path d="M 131.768 202.668 L 132.531 205.479 L 135.204 204.323 L 133.482 206.672 L 136.053 208.041 L 133.142 208.159 L 133.675 211.023 L 131.768 208.821 L 129.861 211.023 L 130.394 208.159 L 127.483 208.041 L 130.054 206.672 L 128.332 204.323 L 131.005 205.479 Z" style="stroke: rgb(0, 0, 0); fill: rgb(224, 231, 11); stroke-width: 0px;" bx:shape="star 131.768 207.063 4.395 4.395 0.4 7 1@7efa6a98"/>
      <ellipse style="stroke: rgb(157, 71, 0); fill: rgb(157, 71, 0);" cx="131.857" cy="206.942" rx="0.755" ry="0.755"/>
    </g>
    <g transform="matrix(1, 0, 0, 1, 290.466431, -171.194351)">
      <path d="M 131.768 202.668 L 132.531 205.479 L 135.204 204.323 L 133.482 206.672 L 136.053 208.041 L 133.142 208.159 L 133.675 211.023 L 131.768 208.821 L 129.861 211.023 L 130.394 208.159 L 127.483 208.041 L 130.054 206.672 L 128.332 204.323 L 131.005 205.479 Z" style="stroke: rgb(0, 0, 0); fill: rgb(224, 231, 11); stroke-width: 0px;" bx:shape="star 131.768 207.063 4.395 4.395 0.4 7 1@7efa6a98"/>
      <ellipse style="stroke: rgb(157, 71, 0); fill: rgb(157, 71, 0);" cx="131.857" cy="206.942" rx="0.755" ry="0.755"/>
    </g>
    <g transform="matrix(1, 0, 0, 1, 266.465576, -106.404602)">
      <path d="M 131.768 202.668 L 132.531 205.479 L 135.204 204.323 L 133.482 206.672 L 136.053 208.041 L 133.142 208.159 L 133.675 211.023 L 131.768 208.821 L 129.861 211.023 L 130.394 208.159 L 127.483 208.041 L 130.054 206.672 L 128.332 204.323 L 131.005 205.479 Z" style="stroke: rgb(0, 0, 0); fill: rgb(224, 231, 11); stroke-width: 0px;" bx:shape="star 131.768 207.063 4.395 4.395 0.4 7 1@7efa6a98"/>
      <ellipse style="stroke: rgb(157, 71, 0); fill: rgb(157, 71, 0);" cx="131.857" cy="206.942" rx="0.755" ry="0.755"/>
    </g>
    <ellipse style="stroke: rgb(0, 0, 0); fill: rgb(216, 15, 15);" cx="422.483" cy="35.419" rx="6.878" ry="5.134"/>
    <ellipse style="stroke: rgb(0, 0, 0); fill: rgb(216, 15, 15);" cx="414.272" cy="50.472" rx="6.878" ry="5.134"/>
    <ellipse style="stroke: rgb(0, 0, 0); fill: rgb(216, 15, 15);" cx="398.945" cy="43.63" rx="6.878" ry="5.134"/>
    <ellipse style="stroke: rgb(0, 0, 0); fill: rgb(216, 15, 15);" cx="412.083" cy="97.001" rx="6.878" ry="5.134"/>
    <ellipse style="stroke: rgb(0, 0, 0); fill: rgb(216, 15, 15);" cx="435.309" cy="80.032" rx="6.878" ry="5.134"/>
    <ellipse style="stroke: rgb(0, 0, 0); fill: rgb(216, 15, 15);" cx="430.382" cy="68.263" rx="6.878" ry="5.134"/>
    <ellipse style="stroke: rgb(0, 0, 0); fill: rgb(216, 15, 15);" cx="396.717" cy="99.465" rx="6.878" ry="5.134"/>
  </g>
  <path d="M 342.509 234.042 C 342.509 236.705 335.838 238.863 327.609 238.863 C 321.283 238.863 315.877 237.588 313.716 235.788 C 313.572 240.592 313.374 246.614 313.6 249.429 C 313.814 252.093 314.886 253.94 314.712 254.989 C 314.617 255.565 314.327 255.78 313.934 255.99 C 313.46 256.243 312.454 256.349 311.932 256.212 C 311.498 256.098 311.241 255.917 310.931 255.434 C 310.421 254.636 309.89 253.487 309.597 251.208 C 309.352 249.302 309.191 245.31 309.142 241.152 C 306.881 242.577 302.702 243.533 297.919 243.533 C 290.734 243.533 284.909 241.375 284.909 238.712 C 284.909 236.049 290.734 233.891 297.919 233.891 C 302.7 233.891 306.878 234.846 309.139 236.27 C 309.181 232.633 309.326 229.49 309.597 228.302 C 309.843 227.226 310.319 227.114 310.598 226.856 C 310.766 226.7 310.797 226.638 311.043 226.634 C 311.523 226.625 313.148 226.875 313.6 227.412 C 314.021 227.912 313.779 228.301 313.823 229.636 C 313.842 230.226 313.834 231.121 313.812 232.218 C 316.034 230.46 321.374 229.221 327.609 229.221 C 335.838 229.221 342.509 231.379 342.509 234.042 Z" style="fill: rgb(166, 209, 48); stroke: rgb(129, 151, 57); stroke-width: 2px;" transform="matrix(0.866025, -0.5, 0.5, 0.866025, -78.697475, 189.203063)"/>
</svg>