<?xml version="1.0" encoding="utf-8"?>
<svg viewBox="0 0 500 500" xmlns="http://www.w3.org/2000/svg">
  <g>
    <g>
      <path d="M 193.507 130.603 C 200.235 117.245 219.969 112.689 243.988 83.824 M 194.443 133.068 C 214.657 117.873 229.411 97.775 249.328 81.635 M 200.925 138.701 C 220.535 121.702 239.1 102.788 249.54 78.835 M 203.449 138.737 C 212.584 128.531 224.28 111.294 246.396 81.503 M 188.875 155.209 C 215.274 122.46 243.333 98.351 266.975 81.526 M 192.042 155.142 C 215.987 124.644 245.289 96.885 265.249 75.861 M 202.539 164.523 C 214.279 142.848 229.712 116.99 265.904 80.938 M 199.908 162.152 C 224.051 127.23 249.967 99.242 261.061 77.283 M 184.862 171.642 C 227.469 126.184 259.297 88.343 283.28 73.361 M 188.831 172.273 C 215.57 140.929 246.53 110.305 280.972 75.938 M 198.026 181.335 C 215.293 143.854 248.477 111.173 283.862 71.664 M 193.16 179.623 C 220.087 147.215 248.964 112.599 281.147 73.925 M 186.029 188.035 C 223.135 152.061 253.18 115.923 291.709 77.096 M 190.773 184.039 C 223.503 154.598 250.823 124.491 293.046 77.494 M 200.142 191.376 C 232.696 150.298 272.525 97.218 287.415 76.686 M 197.724 190.225 C 223.77 151.976 261.872 112.462 291.055 78.053 M 187.716 200.523 C 217.772 173.897 249.657 141.318 302.188 75.098 M 193.032 200.299 C 232.753 157.144 273.476 112.294 302.951 81.439 M 203.22 203.286 C 247.004 161.47 281.747 120.459 299.282 77.079 M 198.915 203.314 C 218.489 174.726 245.449 146.411 303.119 78.574 M 193.754 209.658 C 229.161 184.019 256.788 155.87 315.404 82.368 M 193.081 211.612 C 228.185 173.235 259.26 138.218 315.15 79.194 M 200.887 220.924 C 252.508 170.021 291.596 119.07 314.544 77.349 M 202.76 218.146 C 243.779 167.466 287.133 119.738 314.256 82.505 M 195.445 223.43 C 236.833 183.894 279.439 141.369 324.776 79.872 M 197.28 219.859 C 231.142 182.271 258.864 155.823 325.258 82.629 M 211.035 227.986 C 232.373 186.919 258.426 152.059 330.215 84.767 M 205.772 226.899 C 260.186 178.662 309.411 118.98 326.332 80.516 M 207.713 231.791 C 236.526 202.005 267.402 172.561 338.807 84.982 M 206.433 226.56 C 249.693 179.903 290.016 132.081 333.188 88.703 M 210.785 236.131 C 232.845 198.507 261.632 164.432 330.789 87.813 M 212.708 235.19 C 242.933 202.67 267.157 171.943 336.315 85.158 M 215.21 240.577 C 248.572 202.513 279.304 170.486 340.315 88.869 M 212.489 234.602 C 245.099 192.077 276.127 155.033 343.793 90.453 M 220.581 245.301 C 260.988 186.321 308.528 132.665 339.48 94.764 M 219.471 245.402 C 240.361 207.593 265.988 176.371 341.51 91.269 M 213.061 240.745 C 270.959 198.494 323.021 144.41 348.88 96.938 M 216.29 245.073 C 239.038 220.293 266.472 192.217 351.104 99.032 M 225.342 249.758 C 249.642 217.17 270.737 185.632 351.862 100.532 M 226.255 253.521 C 264.748 185.128 316.19 126.236 351.401 97.998 M 229.204 249.845 C 281.573 192.932 328.186 147.092 358.418 108.161 M 226.908 252.738 C 256.274 199.459 295.037 160.023 358.703 104.64 M 233.6 261.16 C 271.298 201.57 316.12 148.782 356.242 102.794 M 232.286 258.408 C 255.878 212.683 289.671 172.653 357.424 106.54 M 235.027 255.169 C 266.124 211.81 310.084 161.704 362.803 117.34 M 232.087 258.184 C 258.215 228.1 286.561 193.228 363.955 110.99 M 243.337 260.904 C 283.009 205.166 331.551 156.703 368.491 113.458 M 243.06 264.747 C 278.506 207.378 321.007 159.08 363.197 113.207 M 243.275 262.158 C 274.955 233.782 311.049 209.369 373.605 123.698 M 240.942 261.026 C 283.757 216.866 323.265 175.96 371.136 120.896 M 247.891 266.938 C 289.797 213.272 336.971 166.528 366.971 121.254 M 248.646 267.051 C 282.536 231.544 308.429 197.454 370.049 122.609 M 250.88 269.063 C 294.269 224.314 338.747 173.977 372.786 133.753 M 249.797 266.773 C 289.494 218.566 330.867 171.686 376.335 129.949 M 261.588 271.619 C 299.256 226.101 339.87 173.669 374.038 131.406 M 258.521 274.925 C 298.904 226.772 339.944 171.042 375.721 132.134 M 260.641 272.377 C 304.087 223.792 350.638 175.288 384.322 134.617 M 263.862 269.257 C 289.372 228.894 323.475 191.75 383.87 136.615 M 267.822 274.746 C 310.734 228.31 347.599 172.401 380.462 138.932 M 268.048 277.097 C 300.119 235.532 330.692 198.229 381.586 137.444 M 271.384 268.95 C 316.806 226.464 348.192 187.212 382.871 149.806 M 273.592 271.147 C 311.972 233.601 343.259 198.283 383.965 152.046 M 282.811 276.475 C 320.568 230.288 360.975 175.86 382.895 147.655 M 280.835 280.334 C 303.773 247.571 334.143 211.105 384.12 151.489 M 289.117 270.764 C 320.452 250.097 346.201 226.121 391.664 166.684 M 284.241 271.125 C 317.463 241.482 342.325 215.325 386.23 164.322 M 293.158 282.894 C 315.436 257.076 340.124 236.761 389.76 162.045 M 292.29 278.215 C 318.877 255.812 342.525 224.835 389.986 164.146 M 304.689 272.655 C 335.084 234.725 367.016 207.755 393.158 172.975 M 302.725 268.412 C 322.677 246.269 343.59 226.248 390.124 174.964 M 307.105 273.748 C 335.811 249.106 366.851 213.996 387.11 177.732 M 308.681 274.057 C 333.397 254.431 353.673 232.432 391.097 174.132 M 318.769 264.54 C 336.093 251.982 345.228 235.365 388.173 198.231 M 321.199 261.185 C 340.614 237.433 364.341 212.663 384.288 194.404 M 333.515 269.858 C 339.144 240.344 359.181 216.765 388.558 195.374 M 330.716 270.135 C 343.958 242.296 363.853 218.548 386.946 198.276 " style="fill: none; stroke: rgb(181, 239, 138); stroke-width: 7px;"/>
      <path d="M 385.735 168.875 C 386.158 180.988 380.338 190.519 378.254 211.362 M 383.943 174.846 C 387.127 182.688 382.436 194.616 379.502 213.112 M 373.563 210.903 C 367.437 222.396 362.298 223.522 359.436 241.938 M 377.433 209.865 C 368.934 221.65 362.632 237.384 354.762 242.195 M 354.018 240.542 C 345.192 250.277 336.947 252.912 322.217 264.44 M 355.313 243.504 C 349.714 249.099 342.232 255.953 323.842 262.6 M 327.568 263.765 C 305.973 268.549 292.578 273.66 287.494 271.601 M 324.033 263.143 C 318.201 265.166 310.346 267.775 288.01 274.8 M 284.49 274.023 C 271.19 270.776 257.847 261.677 245.168 260.225 M 287.519 272.346 C 272.427 269.676 258.168 267.044 248.488 265.754 M 243.866 264.239 C 233.43 252.183 226.006 251.516 212.901 245.325 M 247.353 263.465 C 237.014 257.608 225.359 252.882 217.196 243.464 M 211.142 240.945 C 211.672 233.853 210.165 231.434 193.676 212.638 M 213.515 242.99 C 211.977 235.102 208.596 229.389 195.303 209.896 M 190.879 213.597 C 194.759 200.664 189.005 189.526 187.186 174.476 M 192.133 213.679 C 195.721 201.501 191.473 192.485 187.203 172.848 M 188.954 176.824 C 184.776 162.674 191.091 161.474 196.243 129.366 M 185.659 172.619 C 189.861 163.484 188.455 154.68 195.704 135.2 M 191.358 134.475 C 207.29 118.697 207.893 110.468 212.632 105.865 M 192.663 132.683 C 199.258 121.748 208.923 107.165 215.084 103.941 M 214.459 106.622 C 227.867 103.182 231.923 95.964 246.208 77.562 M 214.681 103.948 C 226.2 93.361 237.356 86.523 248.96 80.784 M 251.292 81.375 C 260.167 79.849 269.595 71.955 287.433 69.92 M 246.49 79.72 C 257.101 74.711 265.617 75.675 284.626 74.425 M 289.301 75.717 C 292.288 70.891 300.343 73.25 329.343 78.135 M 287.242 71.785 C 298.088 75.251 306.049 74.056 326.796 80.206 M 323.104 80.96 C 334.827 86.288 338.108 85.376 360.535 102.443 M 323.611 80.875 C 335.459 88.932 343.767 96.631 356.385 103.642 M 356.676 98.059 C 365.187 107.786 364.41 116.773 376.557 134.658 M 357.572 101.795 C 363.814 117.599 371.241 128.939 376.688 135.168 M 377.95 133.349 C 380.82 143.672 378.438 145.7 383.471 170.173 M 378.978 134.972 C 379.754 144.179 381.646 151.779 387.323 173.351 " style="fill: none; stroke: rgb(0, 0, 0); stroke-width: 6px;"/>
    </g>
    <g transform="matrix(1, 0, 0, 1, -1.545595, -3.477589)">
      <path d="M 219.133 142.28 C 223.356 132.386 240.592 130.704 257.149 109.84 M 220.07 144.744 C 235.947 134.218 246.522 118.927 262.489 107.651 M 226.552 150.377 C 241.032 138.553 255.23 124.661 262.702 104.851 M 229.076 150.414 C 234.781 143.716 243.491 129.914 259.557 107.519 M 208.597 173.678 C 233.017 143.731 258.667 122.395 280.136 107.542 M 211.764 173.611 C 233.486 145.877 260.221 121.072 278.41 101.876 M 222.26 182.992 C 232.365 163.124 245.955 139.388 279.065 106.954 M 219.629 180.621 C 241.048 148.646 264.493 123.501 274.222 103.299 M 211.144 182.563 C 247.914 144.393 273.991 113.167 295.129 100.886 M 215.113 183.194 C 237.428 157.233 263.545 132.181 292.822 103.463 M 224.308 192.257 C 237.393 159.669 265.638 132.67 295.711 99.189 M 219.442 190.544 C 241.811 163.314 266.011 134.078 292.996 101.451 M 212.311 198.957 C 244.775 168.544 270.484 137.393 302.902 105.376 M 217.055 194.96 C 244.512 170.443 267.66 145.135 304.239 105.774 M 226.424 202.298 C 252.81 168.201 286.615 122.05 298.608 104.966 M 224.006 201.146 C 245.424 168.783 277.969 135.662 302.248 106.334 M 217.278 207.672 C 243.034 185.597 270.121 158.537 314.037 102.624 M 222.595 207.447 C 255.958 171.502 289.976 134.364 314.8 108.964 M 232.783 210.434 C 269.133 175.651 297.486 141.99 311.131 104.604 M 228.478 210.462 C 244.39 186.518 266.886 163.338 314.968 106.099 M 227.253 212.278 C 256.345 191.886 278.694 169.808 325.941 111.403 M 226.58 214.232 C 254.633 183.584 279.683 155.498 325.687 108.228 M 234.386 223.544 C 276.344 181.886 306.718 140.958 325.081 106.383 M 236.259 220.766 C 268.668 179.558 303.433 141.712 324.793 111.54 M 227.632 227.559 C 260.875 196.845 295.903 163.038 330.721 114.19 M 229.467 223.988 C 256.447 194.211 278.782 173.958 331.202 116.947 M 243.222 232.116 C 259.407 198.969 278.849 171.713 336.159 119.085 M 237.959 231.029 C 280.318 192.94 319.314 145.026 332.276 114.834 M 243.181 232.147 C 264.848 208.244 289.208 186.295 344.096 120.054 M 241.9 226.916 C 275.212 192.322 305.262 156.317 338.477 123.775 M 246.252 236.487 C 263.366 207.03 285.573 180.525 336.078 122.885 M 248.176 235.546 C 270.908 210.47 288.779 187.051 341.604 120.231 M 252.646 238.669 C 277.029 209.879 300.584 186.109 345.603 123.941 M 249.924 232.693 C 274.458 201.378 297.213 173.85 349.082 125.526 M 258.016 243.393 C 287.813 197.459 323.721 157.183 344.768 129.837 M 256.907 243.493 C 272.431 214.851 291.503 191.169 346.798 126.342 M 252.465 236.572 C 295.918 207.94 334.752 169.075 352.201 134.275 M 255.694 240.9 C 272.619 222.699 292.769 203.003 354.424 136.369 M 264.745 245.585 C 282.296 222.558 295.782 199.773 355.182 137.869 M 265.659 249.348 C 292.277 198.713 329.507 156.171 354.721 135.334 M 271.888 241.899 C 307.121 203.532 338.776 174.9 357.802 150.026 M 269.592 244.792 C 288.951 208.011 315.759 182.328 358.087 146.505 M 276.284 253.214 C 300.457 213.079 330.705 177.057 355.626 144.659 M 274.97 250.462 C 290.371 218.794 312.877 191.749 356.808 148.405 M 280.992 243.45 C 299.754 218.534 328.803 185.583 359.563 162.224 M 278.051 246.464 C 295.709 227.236 312.33 205.853 360.715 155.874 M 289.301 249.185 C 310.819 214.7 341.94 186.278 365.251 158.342 M 289.024 253.028 C 310.192 216.257 335.931 187.242 359.957 158.091 M 290.552 248.929 C 306.983 231.462 330.747 221.234 366.428 173.11 M 288.218 247.797 C 312.904 223.636 335.913 201.71 363.96 170.308 M 295.167 253.709 C 317.631 223.228 347.258 196.67 359.794 170.666 M 295.923 253.822 C 315.449 234.003 329.007 214.102 362.872 172.021 M 306.029 246.778 C 328.243 226.574 351.362 200.808 366.265 182.41 M 304.946 244.488 C 325.764 221.651 346.108 198.963 369.814 178.606 M 316.737 249.333 C 332.066 228.997 351.481 200.953 367.517 180.063 M 313.67 252.639 C 333.459 228.894 351.853 199.214 369.2 180.791 " style="fill: none; stroke: rgb(101, 82, 77); stroke-width: 7px;"/>
    </g>
  </g>
</svg>