<?xml version="1.0" encoding="utf-8"?>
<svg viewBox="0 0 500 500" xmlns="http://www.w3.org/2000/svg">
  <g>
    <path d="M 173.457 155.575 C 175.439 148.78 190.439 149.67 200.32 135.965 M 174.394 158.039 C 186.391 151.69 193.228 140.699 205.66 133.776 M 180.876 163.672 C 190.765 156.477 201.058 147.079 205.872 130.976 M 183.4 163.709 C 186.037 160.15 192.075 149.421 202.728 133.644 M 132.742 221.69 C 162.899 183.614 195.536 154.24 223.307 133.667 M 135.909 221.623 C 164.077 185.872 198.256 152.503 221.581 128.001 M 146.406 231.004 C 161.254 205.893 180.189 176.007 222.236 133.079 M 143.775 228.633 C 173.095 188.11 203.705 154.721 217.393 129.424 M 131.353 235.103 C 178.737 183.683 215.27 140.429 241.58 123.238 M 135.322 235.734 C 165.68 199.987 200.603 164.804 239.273 125.815 M 144.517 244.796 C 165.206 203.312 202.431 165.982 242.162 121.54 M 139.651 243.084 C 170.308 206.442 203.012 167.423 239.447 123.802 M 130.552 253.761 C 172.099 212.468 206.29 171.559 250.666 126.218 M 135.296 249.764 C 173.071 215.615 204.381 180.917 252.002 126.616 M 144.665 257.102 C 183.12 209.347 228.71 149.639 246.372 125.808 M 142.247 255.95 C 172.72 212.072 216.138 166.444 250.012 127.176 M 134.207 263.985 C 167.29 234.156 202.551 197.692 261.144 124.221 M 139.523 263.76 C 183.718 215.532 229.159 165.255 261.907 130.561 M 149.711 266.748 C 198.726 219.983 237.965 173.8 258.239 126.201 M 145.406 266.775 C 167.557 234.92 197.657 202.992 262.076 127.696 M 142.214 270.855 C 179.966 243.267 209.553 212.864 272.392 133.755 M 141.541 272.81 C 179.263 231.561 212.576 193.97 272.138 130.58 M 149.346 282.121 C 204.556 227.785 246.881 173.11 271.533 128.735 M 151.22 279.344 C 195.436 225.146 241.981 173.747 271.244 133.892 M 143.783 284.88 C 191.371 237.82 239.595 188.253 295.032 116.433 M 145.369 281.791 C 183.841 239.006 215.902 207.042 295.448 118.818 M 158.286 289.707 C 185.336 242.578 217.534 201.048 299.735 120.667 M 153.734 288.766 C 217.095 230.629 274.627 161.402 296.377 116.989 M 156.373 291.691 C 192.398 255.354 229.595 217.899 318.731 109.52 M 155.306 287.332 C 209.153 227.871 260.835 167.655 314.049 112.621 M 160.191 296.402 C 188.46 251.245 223.756 209.566 312.05 111.879 M 161.793 295.617 C 198.887 255.574 229.99 217.143 316.655 109.667 M 164.102 299.391 C 210.079 248.411 251.798 203.388 341.176 91.291 M 161.98 294.731 C 207.632 236.388 252.288 184.395 343.889 92.527 M 169.951 304.519 C 228.38 225.923 293.622 151.07 340.525 95.889 M 169.086 304.598 C 199.792 254.517 235.651 211.566 342.108 93.164 M 167.808 296.835 C 245.221 230.523 316.764 153.316 358.228 89.078 M 170.272 300.139 C 203.444 263.541 241.897 222.328 359.925 90.676 M 178.968 305.268 C 214.431 258.461 248.448 213.399 360.503 91.821 M 179.665 308.14 C 239.787 215.087 312.519 130.925 360.152 89.886 M 183.98 302.902 C 258.399 221.685 326.207 150.159 375.993 89.143 M 182.266 305.062 C 228.498 232.552 283.818 173.297 376.206 86.514 M 189.174 313.012 C 247.719 228.76 312.695 152.447 374.369 85.136 M 188.194 310.958 C 226.922 247.098 276.558 188.632 375.252 87.933 M 192.37 306.088 C 243.008 238.574 305.761 167.323 386.593 91.426 M 190.185 308.328 C 230.031 261.835 274.75 209.176 387.449 86.706 M 200.484 312.035 C 265.153 229.077 335.688 152.726 390.82 88.54 M 200.278 314.891 C 257.313 232.144 322.053 157.444 386.886 88.354 M 199.931 313.526 C 250.612 268.116 301.616 222.345 404.053 89.126 M 198.235 312.704 C 264.113 242.1 325.974 174.868 402.26 87.09 M 205.348 318.793 C 272.267 236.363 341.141 161.927 399.233 87.35 M 205.897 318.875 C 256.847 263.146 299.981 209.926 401.47 88.334 M 212.946 314.092 C 283.092 237.697 354.195 157.23 413.519 89.027 M 212.161 312.432 C 277.242 233.113 345.496 155.829 416.092 86.269 M 222.785 317.749 C 288.984 239.759 356.282 157.481 414.427 87.325 M 220.562 320.145 C 288.409 239.445 358.598 151.755 415.647 87.853 M 229.078 310.277 C 301.236 230.654 373.262 152.18 432.135 82.038 M 231.435 307.994 C 277.924 240.696 334.326 177.91 431.804 83.5 M 236.357 313.77 C 307.551 233.402 374.866 145.34 429.311 85.195 M 236.523 315.491 C 289.013 248.593 340.994 186.688 430.133 84.107 M 246.55 300.718 C 318.583 226.6 377.272 157.341 440.836 85.951 M 248.202 302.362 C 312.308 236.63 369.14 172.335 441.654 87.627 M 257 308 C 327.317 223.234 398.524 134.653 440.853 84.342 M 255.522 310.887 C 300.998 252.644 355.318 188.456 441.77 87.211 M 268.304 296.16 C 324.96 251.458 373.19 200.697 461.297 86.488 M 264.631 296.433 C 322.673 238.79 369.96 186.697 457.204 84.709 M 273.21 306.916 C 318.045 263.485 360.648 220.169 459.863 82.994 M 272.556 303.392 C 321.603 256.735 368.016 200.029 460.033 84.576 M 277.435 304.324 C 345.893 227.963 412.931 158.821 471.351 84.715 M 275.959 301.135 C 320.896 251.699 363.505 206.117 469.071 86.21 M 281.126 306.776 C 343.801 240.855 410.689 163.702 466.805 88.29 M 282.31 307.007 C 334.92 262.603 378.448 213.1 469.802 85.585 M 282.981 307.805 C 324.156 261.316 364.684 210.53 479.671 93.611 M 284.811 305.278 C 347.816 227.957 415.712 152.404 476.744 90.728 M 295.95 313.429 C 337.793 234.244 396.484 165.755 479.961 91.459 M 293.842 313.638 C 346.332 235.412 410.169 160.683 478.747 93.645 M 294.31 307.421 C 334.458 260.43 375.068 212.446 485.995 97.585 M 292.954 311.939 C 340.879 263.106 388.865 208.939 486.939 98.908 M 298.587 316.365 C 352.976 271.198 399.628 210.624 487.953 96.696 M 301.515 315.579 C 374.168 238.56 447.358 155.712 484.416 96.891 M 301.954 312.494 C 355.551 269.803 404.993 212.69 492.009 103.331 M 302.937 314.745 C 334.849 262.188 376.249 217.431 493.244 101.933 M 313.527 320.435 C 379.809 226.457 453.659 141.76 495.167 102.808 M 310.841 319.963 C 349.94 277.626 388.291 232.887 495.559 105.238 M 310.993 321.511 C 360.949 266.234 418.816 195.817 500.751 105.934 M 313.295 320.237 C 378.297 243.915 442.838 171.53 503.274 110.135 M 317.215 326.601 C 399.211 238.189 473.999 159.323 500.358 110.878 M 319.864 326.013 C 365.161 255.083 418.197 191.193 503.622 109.463 M 321.022 319.86 C 362.405 284.642 402.046 246.117 510.214 115.981 M 322.849 321.434 C 371.692 285.93 411.307 243.596 511.467 113.87 M 329.45 329.809 C 400.402 251.669 456.527 183.03 511.261 116.533 M 330.415 329.872 C 377.258 282.903 413.94 236.334 511.273 115.28 M 338.653 326.222 C 366.263 288.095 406.389 253.052 517.152 121.234 M 336.056 322.908 C 382.581 279.021 424.416 230.424 516.728 125.832 M 341.908 330.048 C 416.693 249.23 471.661 179.351 513.198 127.735 M 342.937 328.635 C 400.481 246.836 465.437 168.637 515.131 126.218 M 348.463 327.21 C 398.16 290.969 433.815 246.792 516.251 135.562 M 348.644 325.026 C 413.059 250.795 472.308 185.863 518.498 138.193 M 360.161 330.634 C 389.639 280.837 429.098 228.527 518.166 135.732 M 356.24 329.282 C 391.978 277.297 428.65 235.171 515.874 139.41 M 366.662 324.116 C 396.192 275.488 434.305 232.992 536.054 133.539 M 364.984 320.912 C 410.47 267.203 453.709 214.487 533.978 135.226 M 370.072 328.553 C 409.482 277.596 444.451 226.589 535.599 135.903 M 370.485 328.484 C 418.727 267.695 468.827 206.529 532.218 136.88 M 378.775 316.748 C 420.417 286.057 451.803 248.466 546.634 133.786 M 379.503 319.787 C 447.493 251.687 513.676 176.567 546.741 134.2 M 386.214 326.188 C 422.823 291.569 451.922 248.198 545.874 131.049 M 387.05 327.508 C 417.406 282.83 453.103 239.463 549.007 133.634 M 392.884 323.643 C 423.012 281.229 454.418 240.712 559.283 138.643 M 389.258 322.931 C 453.312 253.647 520.087 178.587 557.799 135.348 M 400.847 329.802 C 438.064 289.463 475.894 238.53 555.711 137.436 M 398.711 330.985 C 466.049 266.813 524.362 196.535 557.376 135.112 M 420.461 298.847 C 465.021 250.067 511.534 195.42 565.739 142.495 M 423.566 300.342 C 470.899 238.889 526.619 175.766 570.107 137.489 M 432.424 303.479 C 470.102 246.153 522.193 190.037 567.372 140.788 M 430.477 304.595 C 457.534 255.263 493.726 213.211 569.034 137.88 M 429.673 300.278 C 477.028 268.699 519.462 224.196 580.635 143.616 M 432.822 302.584 C 478.308 248.187 526.904 199.947 580.817 144.203 M 440.07 308.335 C 473.769 271.28 505.264 222.758 583.277 138.336 M 439.793 310.281 C 473.632 271.894 502.852 233.205 578.83 143.076 M 440.548 304.302 C 470.846 276.358 502.098 234.163 583.691 148.876 M 440.933 309.704 C 474.394 269.006 509.183 227.282 586.551 149.912 M 451.045 315.565 C 492.63 264.744 532.916 220.256 586.052 151.762 M 450.142 315.702 C 490.6 262.777 529.274 215.649 588.801 150.693 M 457.515 309.474 C 480.599 280.605 513.429 242.931 597.579 156.904 M 459.082 307.174 C 491.446 269.787 521.984 233.867 597.432 152.411 M 460.744 310.409 C 501.576 275.38 537.464 226.881 593.363 154.438 M 464.052 313.929 C 507.081 261.196 550.058 212.498 594.392 152.052 M 470.855 310.608 C 516.221 264.017 558.545 218.92 608.499 159.352 M 466.661 308.426 C 503.404 268.332 532.601 233.752 605.799 158.264 M 474.808 314.953 C 510.374 278.566 536.18 242.179 602.684 161.177 M 476.635 313.899 C 525.979 262.575 576.066 200.411 605.627 159.355 M 477.948 313.543 C 534.876 250.29 590.62 188.927 616.06 162.217 M 477.49 313.105 C 504.719 281.962 534.728 250.271 612.13 163.288 M 489.901 321.756 C 520.369 289.415 550.207 254.88 617.005 168.721 M 484.733 318.907 C 530.303 269.232 575.414 216.108 612.217 165.943 M 493.548 311.486 C 522.019 292.167 554.391 255.667 619.454 167.931 M 487.799 316.103 C 530.22 277.415 565.538 235.58 623.738 171.67 M 494.351 318.752 C 535.39 264.592 582.178 212.572 622.517 170.239 M 496.467 323.49 C 540.819 264.799 583.524 210.932 622.843 169.065 M 495.707 322.199 C 526.991 298.845 553.542 266.989 630.157 181.331 M 499.715 321.923 C 526.518 281.141 564.679 238.444 627.84 179.427 M 509.318 326.204 C 550.465 284.105 582.595 235.968 624.103 176.517 M 504.5 327.175 C 541.563 281.048 576.869 232.453 626.325 179.573 M 509.286 319.914 C 546.182 274.931 597.737 220.999 636.728 188.28 M 510.269 323.072 C 541.124 290.93 570 258.938 636.314 186.481 M 513.148 331.032 C 550.102 294.256 579.47 254.575 632.422 182.048 M 518.981 326.482 C 559.776 273.711 605.966 215.525 636.203 185.683 M 527.603 325.093 C 561.301 266.901 611.252 222.987 639.856 194.577 M 524.821 320.819 C 561.972 283.554 602.544 243.923 639.823 193.455 M 534.952 329.404 C 563.286 286.692 602.164 249.401 642.555 191.335 M 530.825 326.779 C 576.101 275.782 616.981 224.613 640.194 194.414 M 539.335 311.946 C 581.219 269.904 629.512 228.621 649.39 201.854 M 542.507 315.465 C 566.892 294.499 592.191 267.605 645.812 200.684 M 544.001 326.437 C 563.952 298.551 590.32 276.044 649.547 204.718 M 547.719 323.26 C 585.846 285.731 619.565 243.505 647.398 203.296 M 562.688 312.65 C 598.623 275.994 625.287 247.797 649.514 214.508 M 558.213 309.355 C 591.886 285.767 616.689 252.998 652.878 210.55 M 566.695 311.616 C 592.45 278.711 624.449 240.276 650.373 216.099 M 568.504 317.77 C 596.017 284.299 624.885 247.476 653.461 211.912 M 579.031 300.014 C 600.121 284.85 618.362 262.608 654.596 229.75 M 579.006 304.549 C 601.772 275.221 627.321 252.921 651.421 226.731 M 583.397 307.054 C 602.601 287.066 626.058 270.71 653.799 230.595 M 585.799 307.264 C 614.863 280.315 638.532 250.207 650.44 230.333 M 609.765 283.54 C 623.272 270.858 632.282 259.296 646.108 254.493 M 604.402 288.481 C 617.4 274.428 629.36 263.444 643.363 252.687 M 614.499 297.96 C 617.861 276.431 632.224 270.258 644.886 253.827 M 612.273 292.473 C 619.275 278.467 627.878 265.628 641.908 250.018 " style="fill: none; stroke: rgb(78, 165, 217); stroke-width: 5px;"/>
    <path d="M 477.387 88.712 C 484.854 91.44 489.962 97.486 508.516 109.71 M 474.834 86.85 C 481.674 94.4 490.006 100.786 504.441 109.822 M 505.192 111.217 C 505.484 113.287 513.29 117.175 510.651 124.757 M 506.287 110.722 C 506.51 114.22 508.989 120.086 512.519 123.331 M 513.715 119.508 C 513.113 128.022 516.616 130.504 513.652 136.234 M 511.393 121.157 C 515.639 130.27 516.045 134.457 518.164 138.23 M 512.093 140.901 C 527.913 138.861 537.277 133.73 551.437 128.73 M 515.139 137.262 C 524.951 133.865 537.02 134.961 548.435 131.776 M 548.375 130.764 C 556.605 134.929 568.755 141.491 578.541 145.476 M 547.719 132.322 C 555.604 135.859 564.618 138.499 578.893 140.455 M 577.982 143.846 C 594.924 148.515 605.826 154.866 618.15 164.038 M 581.373 143.003 C 593.643 149.107 601.666 159.286 616.257 163.967 M 612.47 168.021 C 624.362 177.584 640.054 189.544 643.506 197.289 M 615.864 162.836 C 624.771 179.997 632.48 189.047 642.648 196.283 M 643.895 194.504 C 641.54 201.576 646.481 201.461 645.898 206.525 M 642.505 195.711 C 642.522 197.842 643.257 202.469 645.816 208.875 M 645.675 210.399 C 644.7 224.954 641.673 242.565 644.314 250.014 M 643.594 207.927 C 649.214 215.887 648.087 227.162 644.951 248.256 M 643.946 246.28 C 635.634 249.874 638.403 258.847 637.518 267.16 M 642.202 249.012 C 638.22 254.59 638.137 261.567 632.012 268.386 M 635.748 267.332 C 629.163 273.166 622.628 280.045 618.754 283.053 M 633.298 269.048 C 628.369 273.184 621.796 279.986 616.153 286.409 M 615.866 286.2 C 609.838 289.44 600.066 299.516 578.296 305.787 M 617.199 285.25 C 606.812 290.761 593.728 295.264 583.094 302.797 M 580.755 302.499 C 562.43 312.475 547.024 317.569 543.179 317.056 M 582.285 305.78 C 568.596 311.819 559.146 313.019 541.989 318.311 M 540.697 321.544 C 537.763 322.004 528.463 323.844 524.85 324.716 M 542.677 318.392 C 538.313 319.16 532.035 319.448 521.769 319.738 M 522.358 324.733 C 515.62 321.773 508.225 319.589 498.049 322.364 M 525.288 322.136 C 516.407 323.433 511.395 321.726 496.921 318.899 M 492.944 319.49 C 479.139 313.765 471.187 315.725 455.546 309.373 M 495.953 315.894 C 485.33 316.638 475.142 312.603 459.577 307.257 M 460.594 306.474 C 449.098 309.266 441.797 304.474 440.428 309.499 M 458.561 307.926 C 451.389 308.742 446.088 306.463 439.68 307.319 M 442.158 305.682 C 436.017 305.243 429.806 303.236 425.765 298.688 M 442.694 307.63 C 437.632 304.53 432.66 301.65 428.212 301.713 M 426.771 301.458 C 417.666 299.328 411.671 307.805 383.619 322.605 M 425.913 301.716 C 410.529 309.039 399.661 316.011 388.059 321.244 M 387.724 319.532 C 380.319 325.163 364.572 321.192 354.213 324.783 M 386.84 319.808 C 375.416 318.943 362.733 323.463 350.941 325.345 M 352.703 321.06 C 339.565 319.663 319.159 320.69 308.878 323.379 M 352.485 326.02 C 340.354 325.62 333.408 320.633 312.721 320.642 M 313.249 320.664 C 302.396 311.533 292.863 306.532 266.039 298.584 M 314.048 318.108 C 302.258 314.386 292.491 310.173 270.47 301.39 M 266.367 299.254 C 257.681 299.916 252.396 308.502 236.993 311.387 M 271.258 298.016 C 254.328 302.779 238.746 308.384 231.279 311.26 M 234.137 313.936 C 220.511 307.924 207.688 312.612 199.723 313.339 M 231.568 310.206 C 227.289 310.776 215.06 313.052 197.867 310.316 M 200.722 307.782 C 192.717 305.366 180.364 303.559 160.196 295.406 M 195.754 308.634 C 188.395 306.005 180.197 300.979 163.46 298.278 M 164.47 295.474 C 156.143 296.691 157.011 285.997 144.568 279.514 M 162.001 298.408 C 156.94 292.354 152.719 286.193 147.989 280.483 M 148.519 281.26 C 142.172 274.159 135.586 255.326 137.675 252.512 M 148.301 278.759 C 143.855 274.391 143.805 262.487 134.565 254.457 M 139.286 257.305 C 134.858 246.459 136.008 234.969 139.717 224.265 M 138.123 252.6 C 134.609 245.476 134.941 235.264 137.951 224.024 M 134.081 224.945 C 138.435 216.368 145.002 215.163 150.018 205.347 M 139.629 222.289 C 139.047 218.17 143.669 213.297 145.082 206.566 M 142.761 209.4 C 154.343 204.598 151.149 201.86 165.272 191.011 M 144.867 205.895 C 150.882 204.828 154.241 200.564 161.048 191.614 M 158.973 197.355 C 166.865 188.021 167.354 175.23 170.675 154.576 M 161.493 191.503 C 164.808 180.662 169.779 166.907 172.306 158.839 M 169.979 157.933 C 172.261 154.719 180.09 150.734 180.983 144.453 M 171.466 155.414 C 174.386 151.59 178.371 150.241 179.783 145.107 M 177.805 141.146 C 185.858 141.471 190.192 137.463 196.282 128.347 M 178.964 145.643 C 184.972 138.04 195.762 135.124 197.748 128.231 M 201.644 128.936 C 203.519 127.991 206.566 130.76 211.127 123.813 M 198.634 131.83 C 202.031 129.403 205.45 128.668 212.942 125.042 M 216.886 128.895 C 218.381 127.001 226.161 119.667 228.838 118.089 M 214.197 122.189 C 219.441 123.87 221.727 123.838 233.628 122.023 M 236.867 117.238 C 241.797 119.463 249.746 127.381 252.051 124.327 M 235.208 119.601 C 241.423 121.706 245.732 122.352 254.611 123.383 M 250.943 125.197 C 263.4 126.311 263.127 130.992 279.142 134.819 M 254.39 123.612 C 261.463 124.2 265.813 125.937 281.151 134.121 M 278.093 132.169 C 281.878 123.241 290.708 123.899 293.875 117.633 M 277.3 135.13 C 283.126 124.541 290.592 120.446 294.776 114.949 M 290.22 116.136 C 293.957 115.499 304.963 115.312 307.724 110.267 M 292.834 117.797 C 298.858 115.181 306.264 111.57 308.043 106.394 M 308.33 111.08 C 321.25 103.155 329.578 101.826 347.015 94.18 M 308.83 104.202 C 323.002 102.283 337.642 100.191 345.222 94.315 M 338.929 98.104 C 355.08 94.654 361.076 92.955 381.402 81.195 M 343.788 92.043 C 352.958 92.899 361.41 93.254 382.255 83.565 M 379.968 86.216 C 402.102 79.9 419.575 85.003 439.935 78.44 M 382.661 82.495 C 401.609 81.304 419.714 79.555 433.517 79.698 M 439.256 82.911 C 443.421 84.341 442.964 75.835 460.691 84.716 M 433.43 79.612 C 443.662 81.393 450.953 81.151 459.077 79.975 M 456.555 82.933 C 463.823 83.155 464.817 86.269 471.508 87.041 M 456.616 81.512 C 462.861 83.474 470.102 86.316 474.032 89.531 " style="fill: none; stroke: rgb(6, 8, 0); stroke-width: 6px;"/>
  </g>
</svg>