<?xml version="1.0" encoding="utf-8"?>
<svg viewBox="0 0 500 500" xmlns="http://www.w3.org/2000/svg">
  <g transform="matrix(-0.681998, 0.731354, -0.731354, -0.681998, 709.419312, 105.351524)">
    <g transform="matrix(0, 1, -1, 0, 648.494019, -123.89827)">
      <path d="M 213.746 149.522 C 220.87 135.617 240.998 130.607 266.195 100.479 M 214.683 151.986 C 235.581 136.054 250.994 115.198 271.536 98.289 M 221.165 157.62 C 241.585 139.804 260.839 120.096 271.748 95.49 M 223.689 157.656 C 233.365 146.896 245.532 129.116 268.604 98.158 M 207.802 175.638 C 233.014 144.57 259.627 122.124 281.966 106.482 M 210.97 175.57 C 233.58 146.731 261.342 120.744 280.24 100.817 M 221.466 184.952 C 232.225 164.361 246.552 139.776 280.895 105.894 M 218.835 182.581 C 241.343 149.427 265.777 123.144 276.051 102.24 M 203.789 192.07 C 246.131 146.943 277.697 109.403 301.551 94.544 M 207.758 192.701 C 234.296 161.602 265.036 131.231 299.244 97.121 M 216.953 201.763 C 234.03 164.505 266.989 132.082 302.133 92.847 M 212.087 200.051 C 238.807 167.879 267.472 133.507 299.418 95.108 M 203.644 209.973 C 242.769 171.581 274.698 133.274 315.885 91.486 M 208.388 205.976 C 243.411 174.395 272.545 142.201 317.222 91.885 M 217.757 213.314 C 252.994 169.201 295.441 113.108 311.591 91.077 M 215.339 212.162 C 243.397 171.355 283.916 129.062 315.231 92.444 M 207.299 220.197 C 238.789 192.054 272.273 157.634 327.676 87.98 M 212.615 219.972 C 254.456 174.415 297.413 126.994 328.439 94.32 M 222.803 222.96 C 269.065 178.8 305.938 135.338 324.77 89.96 M 218.498 222.987 C 239.293 192.852 267.74 162.825 328.607 91.455 M 211.37 231.595 C 248.941 204.158 278.377 173.927 340.892 95.25 M 210.696 233.55 C 248.218 192.522 281.358 155.129 340.638 92.075 M 218.502 242.861 C 273.436 188.789 315.512 134.401 340.032 90.23 M 220.375 240.084 C 264.346 186.156 310.646 135.04 339.744 95.387 M 213.06 245.368 C 256.077 204.067 300.199 159.799 347.64 95.772 M 214.895 241.797 C 250.134 202.647 278.932 174.959 348.121 98.529 M 228.65 249.924 C 251.019 207.273 278.394 170.891 353.078 100.667 M 223.387 248.837 C 280.212 198.57 331.483 136.534 349.195 96.416 M 225.706 252.643 C 255.823 221.593 287.681 190.567 362.566 99.569 M 224.556 247.944 C 269.861 198.774 312.584 148.601 357.52 102.911 M 229.233 257.209 C 252.76 218.54 282.616 183.163 355.365 102.112 M 230.961 256.363 C 262.171 222.525 287.79 190.32 360.328 99.727 M 232.392 262.084 C 267.117 222.793 299.17 189.071 364.773 103.677 M 229.966 256.757 C 264.368 212.578 297.394 173.595 367.874 105.089 M 237.998 267.007 C 281.084 205.85 330.714 149.379 364.028 108.933 M 237.009 267.097 C 259.5 228.227 286.431 195.525 365.838 105.817 M 231.174 263.128 C 290.664 217.082 344.785 160.289 373.31 111.509 M 234.037 266.965 C 258.354 240.416 287.061 210.654 375.281 113.365 M 242.918 271.863 C 268.723 237.597 291.826 204.393 375.953 114.695 M 243.727 275.199 C 285.696 204.542 339.523 142.534 375.545 112.448 M 246.41 271.856 C 300.88 212.617 349.937 163.374 383.354 121.356 M 244.379 274.416 C 276.318 219.928 316.859 178.094 383.606 118.24 M 251.169 282.623 C 291.689 220.785 338.666 165.364 381.429 116.606 M 250.006 280.189 C 276.092 232.822 311.66 190.654 382.475 119.922 M 252.508 277.236 C 287.122 230.215 333.577 177.453 390.501 127.475 M 249.905 279.903 C 278.39 247.124 309.413 209.643 391.521 121.856 M 260.729 283.065 C 304.482 223.42 355.955 170.426 395.534 124.04 M 260.484 286.466 C 299.606 225.741 345.409 173.276 390.85 123.818 M 260.758 284.089 C 294.69 253.43 332.12 225.813 400.137 134.801 M 258.678 283.079 C 304.12 235.725 346.367 191.425 397.936 132.303 M 265.692 289.061 C 310.545 232.208 359.81 181.976 394.223 132.622 M 266.365 289.162 C 301.951 251.266 330.102 214.857 396.967 133.83 M 269.089 290.13 C 315.45 241.685 362.813 188.21 399.979 144.754 M 268.115 288.069 C 310.795 236.49 355.252 186.251 403.173 141.331 M 279.481 293.086 C 320.544 243.683 364.116 188.159 401.106 142.641 M 276.721 296.061 C 320.309 244.022 364.744 184.959 402.621 143.296 M 277.6 295.07 C 324.769 242.483 374.64 190.16 411.122 145.988 M 280.821 291.949 C 308.471 248.061 345.324 207.753 410.67 147.987 M 284.781 297.438 C 331.193 246.999 371.649 186.958 407.262 150.303 M 285.007 299.789 C 319.615 254.877 352.825 214.541 408.386 148.816 M 287.031 293.152 C 337.7 244.824 373.668 200.3 412.951 157.404 M 289.239 295.349 C 332.429 252.851 368.067 212.528 414.045 159.645 M 298.458 300.677 C 341.897 247.698 387.731 187.026 412.975 155.253 M 296.482 304.536 C 322.839 267.699 357.394 226.419 414.2 159.088 M 304.108 295.72 C 339.319 272.133 368.173 244.585 419.12 177.301 M 299.232 296.082 C 336.344 262.366 364.282 232.671 413.686 174.939 M 308.149 307.851 C 333.794 279.746 361.11 256.409 417.216 172.662 M 307.281 303.171 C 337.075 277.824 363.853 243.246 417.442 174.763 M 314.431 303.649 C 351.384 259.063 389.299 225.211 420.614 183.592 M 312.467 299.406 C 336.838 272.459 361.489 248.137 417.58 185.581 M 316.847 304.742 C 351.15 273.781 388.337 231.602 414.566 188.349 M 318.423 305.051 C 348.413 281.573 372.68 254.983 418.553 184.749 M 327.199 297.044 C 349.373 277.453 364.927 253.45 424.158 199.037 M 329.629 293.689 C 358.121 258.235 391.393 222.485 420.272 195.21 M 341.945 302.361 C 354.296 261.382 382.761 228.108 424.543 196.18 M 339.146 302.638 C 360.028 263.819 389.366 229.208 422.931 199.082 M 347.653 285.333 C 362.664 271.62 374.46 255.816 417.4 216.751 M 345.861 291.305 C 365.698 274.458 381.175 257.381 418.648 218.5 M 350.877 295.043 C 370.72 282.674 386.609 255.885 419.989 215.577 M 354.747 294.005 C 379.34 267.455 405.475 240.128 415.314 215.834 M 354.051 291.423 C 369.963 285.617 384.434 268.033 409.601 237.573 M 355.345 294.385 C 364.14 279.345 375.858 269.111 411.226 235.734 M 366.896 299.8 C 379.192 271.887 400.239 248.966 413.757 236.885 M 363.361 299.179 C 375.37 287.888 385.681 275.712 414.274 240.083 " style="fill: none; stroke: rgb(254, 185, 95); stroke-width: 5px;"/>
      <path d="M 416.33 195.538 C 415.903 203.584 413.932 203.521 413.737 210.923 M 419.359 193.861 C 416.666 200.382 415.011 207.765 417.057 216.452 M 412.435 214.937 C 409.324 218.805 411.856 234.202 407.051 237.301 M 415.921 214.163 C 415.662 219.697 411.668 227.331 411.346 235.439 M 405.291 232.92 C 405.479 238.941 403.714 249.689 386.545 270.012 M 407.665 234.965 C 402.065 240.635 398.417 248.547 388.173 267.27 M 383.748 270.97 C 375.767 279.686 361.553 288.738 354.257 293.415 M 385.002 271.052 C 381.113 271.829 371.283 276.134 354.273 291.787 M 356.024 295.763 C 347.729 289.315 348.404 297.28 335.593 293.353 M 352.729 291.558 C 349.944 292.599 341.647 294.993 335.054 299.187 M 330.708 298.461 C 329.645 296.442 315.176 300.168 309.242 303.752 M 332.013 296.669 C 323.99 300.654 317.794 298.651 311.694 301.827 M 311.069 304.509 C 311.453 303.14 303.407 300.313 289.734 294.704 M 311.291 301.835 C 303.347 301.034 295.742 301.002 292.486 297.926 M 294.818 298.517 C 289.278 298.999 284.183 291.52 272.209 288.743 M 290.016 296.862 C 287.069 295.195 281.997 296.548 269.402 293.248 M 274.077 294.54 C 259.473 282.861 250.797 278.175 241.591 266.422 M 272.018 290.608 C 263.354 289.16 251.826 279.759 239.044 268.494 M 235.352 269.247 C 233.286 264.011 223.548 249.932 218.347 235.675 M 235.859 269.162 C 228.742 259.507 219.58 249.54 214.198 236.875 M 214.489 231.292 C 217.964 228.677 211.367 226.769 206.795 216.271 M 215.384 235.028 C 211.498 229.586 207.992 220.46 206.926 216.78 M 208.188 214.961 C 210.09 213.08 205.708 203.065 203.709 191.572 M 209.216 216.585 C 206.378 212.746 206.069 207.092 207.561 194.75 M 210.206 195.138 C 207.514 189.066 202.424 183.529 209.034 176.147 M 205.747 194.263 C 206.52 186.223 207.34 176.286 207.21 172.096 M 212.868 173.31 C 210.271 168.454 209.661 159.204 210.811 154.792 M 210.241 174.764 C 211.651 166.371 213.025 159.615 212.858 151.936 M 210.395 153.39 C 222.122 144.948 229.334 130.117 233.598 122.747 M 213.945 155.098 C 220.833 141.576 230.396 125.527 238.591 117.026 M 238.129 117.537 C 244.589 108.436 263.142 99.671 269.112 98.11 M 235.903 118.812 C 243.773 110.616 254.41 104.069 271.013 94.786 M 266.366 93.769 C 272.547 98.204 281.372 95.141 291.772 91.995 M 269.979 96.415 C 276.563 92.358 285.187 93.764 291.981 92.668 M 289.506 89.318 C 299.27 94.348 298.821 89.036 316.137 83.786 M 289.189 91.55 C 296.245 91.125 299.36 88.596 311.034 89.225 M 309.892 84.287 C 319.623 92.285 322.044 86.516 329.303 90.502 M 310.332 90.461 C 319.058 90.503 323.915 87.322 332.571 91.687 M 334.598 91.813 C 334.514 90.002 340.708 95.973 351.872 99.969 M 333.566 91.969 C 337.649 90.154 342.764 92.021 355.014 98.747 M 353.611 100.442 C 359.518 107.078 369.021 108.067 388.543 122.701 M 355.372 97.857 C 361.472 101.303 367.411 105.826 388.378 117.652 M 382.407 116.806 C 394.836 133.635 397.939 142.31 406.492 153.578 M 386.124 120.762 C 390.893 129.52 401.225 139.225 407.648 150.896 M 412.746 154.904 C 407.48 155.582 409.49 163 420.416 172.449 M 408.068 152.471 C 410.823 157.958 410.217 161.745 417.405 171.236 M 414.905 172.303 C 415.159 177.703 412.684 180.214 416.081 195.82 M 416.943 171.128 C 416.971 183.303 417.057 190.875 419.363 193.787 " style="fill: none; stroke: rgb(0, 0, 0); stroke-width: 6px;"/>
    </g>
    <g style="" transform="matrix(0, 1.982906, -1.14388, 0, 739.591614, -385.394104)">
      <path d="M 229.858 303.354 C 229.87 302.979 231.545 305.478 232.09 306.275 M 229.978 304.332 C 231.07 305.359 231.542 304.586 232.772 305.406 M 232.851 312.096 C 232.889 311.176 233.067 309.259 232.799 304.295 M 233.173 312.11 C 232.681 311.997 232.675 308.979 232.397 305.354 M 231.589 317.582 C 233.611 313.639 235.191 314.6 236.21 315.496 M 232.186 317.542 C 233.35 314.852 234.922 314.663 235.885 312.184 M 235.749 327.323 C 235.006 323.236 234.634 318.428 236.009 315.153 M 235.255 325.937 C 235.008 319.921 235.491 317.381 235.098 313.017 M 233.628 326.551 C 236.661 322.036 237.211 320.64 239.473 320.571 M 234.584 327.023 C 235.581 325.514 237.045 325.273 238.918 322.501 M 237.991 337.029 C 236.574 327.762 238.047 325.326 239.614 319.3 M 236.818 335.747 C 237.279 331.51 238.06 326.457 238.96 320.994 M 236.045 338.594 C 238.976 335.387 240.536 329.486 241.765 330.01 M 237.275 335.374 C 238.116 334.547 239.205 332.629 242.111 330.331 M 240.755 344.132 C 239.912 342.395 241.165 330.744 240.652 329.68 M 240.129 343.204 C 239.853 338.719 241.36 335.593 241.595 330.781 M 238.634 347.574 C 240.651 346.092 242.446 343.87 244.422 335.223 M 240.011 347.391 C 241.753 344.089 243.269 341.524 244.619 340.331 M 243.705 352.645 C 244.643 348.532 244.655 346.462 243.668 336.819 M 242.589 352.666 C 242.467 349.118 243.171 347.941 244.663 338.023 M 242.349 353.778 C 244.388 352.342 245.576 351.885 247.923 347.633 M 242.162 355.465 C 243.213 352.604 244.441 349.595 247.852 344.894 M 245.243 365.972 C 247.356 357.386 247.159 351.834 247.684 343.301 M 245.763 363.575 C 246.236 356.093 247.381 352.777 247.604 347.752 M 243.943 367.333 C 246.165 365.374 249.462 360.263 249.961 353.044 M 244.487 364.043 C 246.01 359.803 247.594 359.648 250.104 355.584 M 249.335 373.617 C 249.125 366.212 248.513 363.286 251.573 357.554 M 247.775 372.616 C 248.752 367.002 250.445 357.19 250.422 353.637 M 248.724 376.163 C 249.397 368.897 251.471 367.855 254.58 361.116 M 248.321 371.038 C 250.271 370.065 250.909 367.049 252.808 364.763 M 250.323 382.12 C 251.33 375.189 252.533 369.512 252.053 363.891 M 250.928 381.197 C 251.515 376.591 251.552 373.24 253.794 361.289 M 251.945 386.167 C 252.366 381.335 254.08 379.004 255.429 367.141 M 251.035 379.959 C 252.307 377.715 252.814 374.891 256.591 368.787 M 254.226 392.389 C 254.906 379.528 256.75 373.449 255.15 373.265 M 253.856 392.495 C 254.344 387.305 254.995 382.857 255.828 369.635 M 251.807 386.79 C 255.729 389.21 258.99 384.321 258.516 377.53 M 252.947 391.544 C 254.336 387.939 255.696 387.12 259.301 379.829 M 256.488 397.616 C 257.281 395.878 255.958 392.397 259.569 381.477 M 256.811 401.748 C 256.695 389.878 258.476 383.397 259.406 378.692 M 257.552 398.578 C 259.606 391.884 261.716 392.951 261.752 392.318 M 256.785 401.584 C 257.609 392.828 259.8 390.77 261.847 388.661 M 259.508 411.648 C 259.767 404.357 261.462 396.508 261.025 386.742 M 259.07 408.79 C 259.457 400.722 260.462 395.53 261.419 390.635 M 260.005 405.341 C 260.843 405.261 263.826 395.649 264.401 400.572 M 259.079 408.295 C 261.174 403.895 261.56 400.772 264.765 394.349 M 263.255 412.662 C 262.297 406.369 264.671 404.409 266.194 396.767 M 263.167 416.428 C 263.718 407.054 264.677 403.531 264.526 396.521 M 263.267 413.691 C 263.354 408.705 266.558 413.557 268.803 406.881 M 262.576 412.649 C 264.228 410.477 265.911 409.377 268.072 404.299 M 265.407 420.182 C 265.761 414.777 268.829 409.952 266.837 404.629 M 265.631 420.287 C 266.768 417.35 266.772 412.823 267.749 405.877 M 266.348 421.833 C 268.027 421.577 269.914 416.534 269.989 415.93 M 266.048 419.856 C 267.851 417.855 269.038 415.206 270.975 412.648 M 270.235 426.508 C 269.436 425.736 270.015 417.751 270.337 413.904 M 269.383 429.361 C 270.177 425.033 270.144 416.743 270.805 414.532 M 269.161 429.995 C 270.255 425.803 273.29 420.13 274.445 418.044 M 269.996 427.481 C 270.843 425.701 272.202 423.447 274.328 419.654 M 272.075 434.748 C 273.294 431.318 272.693 421.381 273.445 421.519 M 272.133 436.643 C 273.261 431.694 273.732 427.409 273.736 420.321 M 272.274 432.964 C 274.951 430.774 275.334 428.235 276.526 428.315 M 272.805 434.61 C 274.485 431.726 275.208 430.773 276.789 429.993 M 276.217 441.819 C 275.964 440.632 276.75 430.464 276.532 426.705 M 275.741 444.708 C 275.575 439.964 275.991 436.246 276.827 429.575 M 276.416 442.159 C 277.526 442.461 278.618 443.505 280.617 440.921 M 275.329 442.409 C 276.836 441.844 277.774 441.209 279.406 439.285 M 278.643 454.15 C 278.28 446.775 279.571 446.885 280.193 437.708 M 278.45 450.908 C 279.242 449.011 279.495 444.448 280.243 439.162 M 280.184 449.398 C 280.945 445.35 282.34 447.031 283.371 444.773 M 279.879 447.343 C 280.282 446.769 281.304 446.283 282.898 445.735 M 282.394 454.883 C 282.889 454.732 283.412 451.154 282.429 447.075 M 282.64 455.032 C 282.907 452.632 283.265 450.697 283.05 445.332 M 283.262 453.91 C 284.475 455.028 284.333 454.888 286.165 455.112 M 283.545 452.696 C 284.132 453.251 285.1 453.017 285.713 453.728 M 287.108 461.592 C 285.867 458.319 285.964 455.733 286.209 454.08 M 286.783 461.692 C 286.177 458.378 285.988 456.447 286.022 455.129" style="fill: none; stroke: rgb(254, 185, 95); stroke-width: 5px;"/>
    </g>
    <g style="" transform="matrix(0, 0.492528, -1.158877, 0, 703.039307, 73.17215)">
      <path d="M 335.225 331.561 C 335.235 331.445 339.043 333.437 340.239 334.485 M 335.498 332.28 C 337.956 333.294 339.005 332.986 341.796 333.847 M 342.735 338.57 C 342.546 337.97 342.687 336.629 341.858 333.031 M 343.471 338.58 C 342.16 338.547 341.964 336.376 340.941 333.808 M 341.653 340.546 C 345.997 338.292 349.365 339.313 351.488 340.189 M 342.89 340.52 C 345.45 339.135 348.808 339.413 350.813 337.977 M 351.589 348.182 C 349.747 345.375 348.676 342.138 351.069 339.959 M 350.561 347.256 C 349.653 343.22 350.259 341.487 349.178 338.532 M 348.785 345.771 C 355.388 342.958 356.688 342.304 361.591 342.426 M 350.828 346.096 C 353.083 345.32 356.317 345.411 360.403 343.753 M 359.223 353.945 C 355.912 347.461 358.787 345.716 361.891 341.553 M 356.718 353.063 C 357.441 350.073 358.851 346.533 360.493 342.717 M 357.061 352.776 C 362.995 351.015 366.226 347.549 368.878 348.354 M 359.504 350.719 C 361.233 350.48 363.523 349.548 369.566 348.559 M 367.989 357.679 C 365.871 356.453 367.913 348.888 366.668 348.143 M 366.744 357.087 C 365.769 354.072 368.351 351.963 368.541 348.847 M 364.61 358.725 C 369.366 357.718 373.597 356.145 378.269 349.812 M 367.822 358.59 C 371.95 356.249 375.547 354.458 378.729 353.642 M 376.964 362.991 C 379.027 359.86 378.919 358.264 376.513 351.008 M 374.363 363.008 C 373.981 360.308 375.53 359.396 378.831 351.911 M 375.729 361.684 C 380.212 360.838 382.871 360.667 388.175 358.027 M 375.322 362.865 C 377.666 361.02 380.423 359.082 388.021 356.109 M 383.025 371.087 C 387.373 364.97 386.686 360.999 387.655 354.994 M 384.157 369.409 C 384.931 364.076 387.166 361.672 387.481 358.11 M 381.218 370.822 C 386.482 369.427 394.275 365.648 395.522 360.316 M 382.495 368.335 C 386.093 365.181 389.849 365.125 395.857 362.236 M 394.366 375.987 C 393.788 370.363 392.269 368.121 399.309 363.725 M 390.701 375.23 C 392.881 370.921 396.736 363.457 396.605 360.764 M 394.735 375.55 C 396.279 370.522 400.931 369.9 407.983 365.408 M 393.844 371.907 C 398.263 371.402 399.779 369.446 404.07 367.999 M 399.166 380.565 C 401.253 375.6 403.784 371.516 402.399 367.38 M 400.505 379.909 C 401.685 376.591 401.642 374.161 406.247 365.531 M 404.944 380.161 C 405.843 377.353 409.305 376.128 412.3 369.302 M 403.175 376.277 C 405.803 375.112 406.939 373.613 414.561 370.331 M 411.076 385.528 C 411.982 377.314 415.167 373.355 411.757 373.134 M 410.355 385.593 C 411.064 382.315 412.102 379.445 413.077 370.862 M 409.01 379.321 C 416.446 381.235 422.702 378.791 422.051 375.069 M 411.108 382.134 C 413.848 380.284 416.49 380.047 423.496 376.43 M 419.634 387.476 C 420.804 386.368 418.094 384.197 423.989 377.405 M 420.227 389.921 C 419.468 382.743 422.229 378.703 423.689 375.758 M 423.523 385.788 C 427.42 382.329 431.479 383.404 431.819 383.466 M 422.136 387.536 C 423.871 382.763 428.027 381.931 431.991 381.339 M 429.166 395.221 C 429.151 390.895 431.743 386.157 430.504 380.223 M 428.373 393.558 C 428.676 388.768 430.126 385.614 431.219 382.487 M 431.6 389.793 C 433.434 390.07 439.329 384.484 440.613 387.976 M 429.824 391.615 C 434.045 389.202 434.923 387.543 441.309 384.14 M 439.608 395.855 C 437.356 391.854 441.484 390.495 444.049 385.631 M 439.441 398.177 C 440.072 392.285 441.504 389.968 440.851 385.479 M 441.69 394.044 C 441.929 391.647 447.655 394.705 452.011 391.772 M 440.489 393.461 C 443.532 392.699 446.669 392.549 450.74 390.33 M 447.728 399.688 C 447.836 396.6 452.646 393.749 448.596 390.514 M 448.117 399.746 C 449.742 398.04 449.382 395.401 450.18 391.211 M 450.897 398.906 C 454.214 399.209 457.916 396.658 458.233 396.702 M 450.34 397.728 C 453.922 396.971 456.322 395.84 460.059 394.744 M 460.072 403.405 C 458.12 402.827 458.718 397.929 458.877 395.493 M 458.493 405.107 C 459.444 402.344 458.875 397.254 459.744 395.868 M 459.573 403.757 C 461.706 401.776 467.423 398.939 469.762 398.194 M 461.093 402.285 C 462.871 401.623 465.504 400.704 469.549 399.137 M 466.947 408.34 C 468.615 406.178 466.975 400.227 467.941 400.23 M 467.054 409.449 C 468.701 406.502 469.156 403.895 468.471 399.528 M 468.816 405.604 C 473.707 404.824 474.562 403.865 476.951 404.505 M 469.766 406.549 C 472.884 405.368 474.338 405.295 477.422 405.469 M 478.032 412.579 C 476.97 411.841 477.761 405.881 476.961 403.58 M 477.182 414.239 C 476.397 411.338 476.667 409.111 477.488 405.23 M 480.455 410.455 C 482.633 410.984 484.844 411.951 488.978 410.967 M 478.358 410.611 C 481.294 410.558 483.208 410.479 486.64 409.951 M 486.494 419.412 C 485.526 414.706 487.737 414.725 488.159 408.972 M 486.12 417.399 C 487.318 416.093 487.473 413.202 488.256 409.876 M 490.211 415.947 C 491.945 413.207 495.138 414.649 497.519 413.206 M 489.517 414.447 C 490.427 414.159 492.762 413.939 496.447 413.909 M 495.944 420.574 C 496.845 420.444 497.811 417.835 495.381 414.888 M 496.501 420.684 C 496.962 418.908 497.63 417.497 496.791 413.615 M 498.607 419.025 C 501.923 419.819 501.554 419.495 506.693 419.237 M 499.385 417.951 C 501.021 418.144 503.721 417.64 505.449 418.011 M 508.459 425.188 C 505.282 422.17 505.806 419.815 506.816 418.322 M 507.563 425.277 C 506.166 422.265 505.933 420.482 506.3 419.251 M 510.224 420.081 C 511.597 421.443 511.58 422.188 514.747 423.526 M 509.767 421.603 C 512.024 422.033 512.508 423.145 515.065 423.972 M 516.669 427.444 C 516.24 427.424 515.521 424.647 515.407 423.227 M 517.655 427.18 C 516.472 425.59 515.777 424.875 514.215 423.293 " style="fill: none; stroke: rgb(254, 185, 95); stroke-width: 5px;"/>
    </g>
    <g style="" transform="matrix(0, 0.99304, -1.42069, 0, 811.807617, -136.767212)">
      <path d="M 452.144 279.566 C 452.109 279.637 455.583 281.643 456.558 283.099 M 452.396 280.23 C 454.584 281.443 455.48 281.438 457.996 282.51 M 459.657 286.541 C 459.186 286.113 459.039 284.99 458.053 281.756 M 460.336 286.551 C 458.926 286.604 458.555 284.678 457.206 282.474 M 458.619 288.413 C 462.615 286.605 465.692 287.764 467.597 288.726 M 459.739 288.389 C 462.115 287.387 465.184 287.888 466.986 286.723 M 468.329 295.947 C 466.482 293.38 465.332 290.453 467.218 288.518 M 467.399 295.109 C 466.335 291.471 466.642 289.908 465.506 287.226 M 465.123 294.511 C 471.232 292.109 472.484 291.694 477.011 291.907 M 466.995 294.809 C 469.125 294.254 472.139 294.492 475.923 293.123 M 475.319 302.549 C 472.118 296.552 474.588 294.923 477.286 291.106 M 473.024 301.742 C 473.53 298.967 474.668 295.694 476.005 292.173 M 472.655 302.208 C 478.588 300.447 481.819 296.981 484.471 297.786 M 475.097 300.151 C 476.826 299.912 479.117 298.98 485.159 297.991 M 483.582 307.111 C 481.464 305.885 483.506 298.32 482.261 297.575 M 482.337 306.519 C 481.362 303.504 483.944 301.395 484.134 298.279 M 480.543 307.958 C 484.699 307.324 488.389 306.191 492.495 301.129 M 483.28 307.842 C 486.929 306.147 490.113 304.911 492.888 304.393 M 492.186 312.563 C 493.665 309.806 493.283 308.374 490.999 302.149 M 489.97 312.577 C 489.434 310.203 490.552 309.375 492.974 302.918 M 490.668 311.926 C 494.84 311.237 497.339 311.165 502.35 308.922 M 490.292 313.018 C 492.49 311.406 495.084 309.712 502.208 307.147 M 497.984 321.117 C 501.859 315.401 501.072 311.685 501.869 306.116 M 499.031 319.564 C 499.598 314.581 501.517 312.315 501.708 308.999 M 495.682 321.591 C 500.637 320.38 507.958 316.945 509.197 312.105 M 496.875 319.27 C 500.25 316.381 503.789 316.394 509.51 313.897 M 508.457 326.848 C 507.826 321.574 506.324 319.452 512.732 315.286 M 505.036 326.142 C 506.946 322.053 510.412 315.041 510.208 312.523 M 508.36 327.247 C 509.904 322.218 514.556 321.597 521.608 317.104 M 507.469 323.603 C 511.888 323.098 513.404 321.142 517.695 319.696 M 512.79 332.261 C 514.878 327.296 517.409 323.212 516.024 319.076 M 514.13 331.605 C 515.31 328.287 515.267 325.857 519.872 317.227 M 517.63 333.737 C 518.61 330.386 522.489 328.832 525.682 320.639 M 515.607 329.295 C 518.516 327.807 519.722 325.918 528.267 321.816 M 523.559 338.932 C 524.864 329.641 528.768 325.21 525.061 325.021 M 522.734 339.007 C 523.7 335.276 525.035 332.047 526.57 322.423 M 521.119 332.344 C 529.032 334.261 535.671 331.517 534.916 327.447 M 523.367 335.358 C 526.255 333.298 529.051 332.975 536.464 328.905 M 531.962 340.612 C 533.296 339.444 530.468 337.145 536.992 329.949 M 532.599 343.233 C 531.936 335.577 535.036 331.299 536.671 328.184 M 536.331 338.267 C 539.977 335.193 543.79 336.319 544.173 336.499 M 535.048 339.885 C 536.714 335.563 540.605 334.898 544.332 334.53 M 542.117 347.486 C 541.967 343.47 544.23 339.05 542.956 333.498 M 541.383 345.947 C 541.552 341.496 542.79 338.549 543.617 335.592 M 544.464 342.344 C 546.157 342.804 551.275 338.276 552.457 341.563 M 542.951 343.896 C 546.666 342.039 547.489 340.809 553.051 338.294 M 552.404 348.48 C 550.204 345.018 553.436 343.788 555.385 339.564 M 552.261 350.458 C 552.516 345.389 553.463 343.346 552.66 339.435 M 553.347 348.004 C 553.586 345.607 559.312 348.666 563.667 345.732 M 552.146 347.421 C 555.188 346.659 558.325 346.51 562.397 344.29 M 559.385 353.648 C 559.493 350.561 564.302 347.709 560.252 344.474 M 559.774 353.706 C 561.399 352 561.038 349.362 561.837 345.172 " style="fill: none; stroke: rgb(254, 185, 95); stroke-width: 5px;"/>
    </g>
    <g transform="matrix(0, 1.765247, -1.60279, 0, 820.447754, -515.383484)" style="">
      <path d="M 450.805 169.68 C 450.814 169.565 454.623 171.556 455.818 172.604 M 451.078 170.399 C 453.536 171.413 454.584 171.105 457.376 171.966 M 458.314 176.689 C 458.125 176.09 458.267 174.748 457.437 171.15 M 459.05 176.7 C 457.74 176.667 457.544 174.495 456.521 171.928 M 455.855 180.235 C 460.557 177.521 464.221 178.416 466.561 179.213 M 457.218 180.206 C 459.96 178.431 463.608 178.492 465.819 176.776 M 466.033 187.98 C 464.185 184.929 463.185 181.374 466.101 178.96 M 464.902 186.96 C 464.141 182.518 465.048 180.624 464.017 177.388 M 461.649 186.845 C 468.752 183.618 470.093 182.727 475.38 182.76 M 463.868 187.198 C 466.247 186.201 469.699 186.148 474.09 184.201 M 472.336 195.157 C 468.907 188.18 472.19 186.323 475.706 181.811 M 469.616 194.2 C 470.554 190.996 472.239 187.187 474.188 183.076 M 468.419 195.634 C 475.293 193.322 478.979 188.996 481.919 189.544 M 471.286 193.219 C 473.271 192.693 475.857 191.351 482.727 189.785 M 479.933 200.249 C 477.822 198.901 480.595 190.119 479.325 189.296 M 478.472 199.553 C 477.688 196.135 481.065 193.748 481.524 190.123 M 475.422 202.23 C 480.482 201.036 484.986 199.242 489.94 192.266 M 478.878 202.084 C 483.246 199.419 487.049 197.351 490.436 196.388 M 488.142 206.322 C 490.497 203.004 490.524 201.333 488.051 193.554 M 485.343 206.34 C 485.037 203.477 486.803 202.528 490.545 194.525 M 485.401 206.539 C 490.198 205.537 493.018 205.267 498.613 202.232 M 484.963 207.81 C 487.453 205.733 490.372 203.551 498.448 200.168 M 492.678 216.158 C 497.501 209.637 496.912 205.412 498.054 198.969 M 493.896 214.353 C 494.876 208.669 497.429 206.128 497.867 202.321 M 491.914 214.636 C 496.56 213.61 503.413 210.518 504.641 206.166 M 493.022 212.478 C 496.177 209.855 499.5 209.938 504.931 207.832 M 504.32 219.985 C 503.636 215.058 502.147 213.057 507.926 209.123 M 501.14 219.329 C 502.779 215.461 505.857 208.898 505.58 206.555 M 505.226 218.361 C 506.47 214.959 510.034 214.784 515.603 212.18 M 504.567 215.668 C 508.045 215.738 509.364 214.74 512.71 214.095 M 510.469 223.779 C 511.692 220.05 513.261 216.945 511.475 213.637 M 511.459 223.294 C 512.053 220.764 511.73 218.885 514.32 212.271 M 515.052 222.69 C 515.706 221.217 518.144 220.813 520.579 217.324 M 513.882 220.12 C 515.8 219.782 516.722 219.259 522.076 218.005 M 521.663 228.46 C 521.567 222.861 522.989 220.097 520.22 219.859 M 521.186 228.504 C 521.256 226.349 521.557 224.368 521.093 218.356 M 520.479 224.498 C 525.144 226.494 529.164 225.84 529.027 224.166 M 521.74 226.188 C 523.608 225.561 525.34 225.867 529.896 224.984 M 529.875 232.016 C 530.085 231.318 527.972 229.931 530.192 225.569 M 530.232 233.486 C 528.847 229.106 529.6 226.523 530.012 224.58 M 532.744 230.144 C 534.625 229.649 536.735 231.356 537.185 232.463 M 532.074 230.987 C 533.167 229.606 535.293 230.154 537.268 231.436 M 539.372 238.09 C 538.199 236.233 538.283 233.962 536.551 230.898 M 538.989 237.288 C 538.234 235.074 538.031 233.564 536.895 231.99 M 541.522 234.341 C 542.444 235.87 544.869 234.921 545.117 238.219 M 540.772 235.109 C 542.771 235.187 543.092 235.594 545.411 236.6 M 549.264 240.691 C 546.684 239.417 546.808 239.145 546.567 237.229 M 549.193 241.671 C 547.94 239.597 546.987 238.91 545.218 237.165 " style="fill: none; stroke: rgb(254, 185, 95); stroke-width: 5px;"/>
    </g>
  </g>
</svg>